<?xml version="1.0" encoding="utf-8"?>
<svg version="1.1" xmlns:xlink="http://www.w3.org/1999/xlink" width="12px" height="12px" viewBox="1115 449  12 12" xmlns="http://www.w3.org/2000/svg">
  <path d="M 1121 449  C 1124.36 449  1127 451.64  1127 455  C 1127 458.36  1124.36 461  1121 461  C 1117.64 461  1115 458.36  1115 455  C 1115 451.64  1117.64 449  1121 449  Z " fill-rule="nonzero" fill="#f0f0f0" stroke="none" />
  <path d="M 1121 449.5  C 1124.08 449.5  1126.5 451.92  1126.5 455  C 1126.5 458.08  1124.08 460.5  1121 460.5  C 1117.92 460.5  1115.5 458.08  1115.5 455  C 1115.5 451.92  1117.92 449.5  1121 449.5  Z " stroke-width="1" stroke="#aaaaaa" fill="none" />
  <path d="M 1121 458  C 1119.32 458  1118 456.68  1118 455  C 1118 453.32  1119.32 452  1121 452  C 1122.68 452  1124 453.32  1124 455  C 1124 456.68  1122.68 458  1121 458  " fill-rule="nonzero" fill="#aaaaaa" stroke="none" />
</svg>