<?xml version="1.0" encoding="utf-8"?>
<svg version="1.1" xmlns:xlink="http://www.w3.org/1999/xlink" width="12px" height="12px" viewBox="1115 757  12 12" xmlns="http://www.w3.org/2000/svg">
  <path d="M 1121 757  C 1124.36 757  1127 759.64  1127 763  C 1127 766.36  1124.36 769  1121 769  C 1117.64 769  1115 766.36  1115 763  C 1115 759.64  1117.64 757  1121 757  Z " fill-rule="nonzero" fill="#f0f0f0" stroke="none" />
  <path d="M 1121 757.5  C 1124.08 757.5  1126.5 759.92  1126.5 763  C 1126.5 766.08  1124.08 768.5  1121 768.5  C 1117.92 768.5  1115.5 766.08  1115.5 763  C 1115.5 759.92  1117.92 757.5  1121 757.5  Z " stroke-width="1" stroke="#aaaaaa" fill="none" />
  <path d="M 1121 766  C 1119.32 766  1118 764.68  1118 763  C 1118 761.32  1119.32 760  1121 760  C 1122.68 760  1124 761.32  1124 763  C 1124 764.68  1122.68 766  1121 766  " fill-rule="nonzero" fill="#aaaaaa" stroke="none" />
</svg>