<?xml version="1.0" encoding="utf-8"?>
<svg version="1.1" xmlns:xlink="http://www.w3.org/1999/xlink" width="12px" height="12px" viewBox="1115 300  12 12" xmlns="http://www.w3.org/2000/svg">
  <path d="M 1121 300  C 1124.36 300  1127 302.64  1127 306  C 1127 309.36  1124.36 312  1121 312  C 1117.64 312  1115 309.36  1115 306  C 1115 302.64  1117.64 300  1121 300  Z " fill-rule="nonzero" fill="#f0f0f0" stroke="none" />
  <path d="M 1121 300.5  C 1124.08 300.5  1126.5 302.92  1126.5 306  C 1126.5 309.08  1124.08 311.5  1121 311.5  C 1117.92 311.5  1115.5 309.08  1115.5 306  C 1115.5 302.92  1117.92 300.5  1121 300.5  Z " stroke-width="1" stroke="#aaaaaa" fill="none" />
  <path d="M 1121 309  C 1119.32 309  1118 307.68  1118 306  C 1118 304.32  1119.32 303  1121 303  C 1122.68 303  1124 304.32  1124 306  C 1124 307.68  1122.68 309  1121 309  " fill-rule="nonzero" fill="#aaaaaa" stroke="none" />
</svg>