<?xml version="1.0" encoding="utf-8"?>
<svg version="1.1" xmlns:xlink="http://www.w3.org/1999/xlink" width="12px" height="12px" viewBox="1115 371  12 12" xmlns="http://www.w3.org/2000/svg">
  <path d="M 1121 371  C 1124.36 371  1127 373.64  1127 377  C 1127 380.36  1124.36 383  1121 383  C 1117.64 383  1115 380.36  1115 377  C 1115 373.64  1117.64 371  1121 371  Z " fill-rule="nonzero" fill="#f0f0f0" stroke="none" />
  <path d="M 1121 371.5  C 1124.08 371.5  1126.5 373.92  1126.5 377  C 1126.5 380.08  1124.08 382.5  1121 382.5  C 1117.92 382.5  1115.5 380.08  1115.5 377  C 1115.5 373.92  1117.92 371.5  1121 371.5  Z " stroke-width="1" stroke="#aaaaaa" fill="none" />
  <path d="M 1121 380  C 1119.32 380  1118 378.68  1118 377  C 1118 375.32  1119.32 374  1121 374  C 1122.68 374  1124 375.32  1124 377  C 1124 378.68  1122.68 380  1121 380  " fill-rule="nonzero" fill="#aaaaaa" stroke="none" />
</svg>