<?xml version="1.0" encoding="utf-8"?>
<svg version="1.1" xmlns:xlink="http://www.w3.org/1999/xlink" width="12px" height="12px" viewBox="1115 680  12 12" xmlns="http://www.w3.org/2000/svg">
  <path d="M 1121 680  C 1124.36 680  1127 682.64  1127 686  C 1127 689.36  1124.36 692  1121 692  C 1117.64 692  1115 689.36  1115 686  C 1115 682.64  1117.64 680  1121 680  Z " fill-rule="nonzero" fill="#f0f0f0" stroke="none" />
  <path d="M 1121 680.5  C 1124.08 680.5  1126.5 682.92  1126.5 686  C 1126.5 689.08  1124.08 691.5  1121 691.5  C 1117.92 691.5  1115.5 689.08  1115.5 686  C 1115.5 682.92  1117.92 680.5  1121 680.5  Z " stroke-width="1" stroke="#aaaaaa" fill="none" />
  <path d="M 1121 689  C 1119.32 689  1118 687.68  1118 686  C 1118 684.32  1119.32 683  1121 683  C 1122.68 683  1124 684.32  1124 686  C 1124 687.68  1122.68 689  1121 689  " fill-rule="nonzero" fill="#aaaaaa" stroke="none" />
</svg>