<?xml version="1.0" encoding="utf-8"?>
<svg version="1.1" xmlns:xlink="http://www.w3.org/1999/xlink" width="12px" height="12px" viewBox="1115 525  12 12" xmlns="http://www.w3.org/2000/svg">
  <path d="M 1121 525  C 1124.36 525  1127 527.64  1127 531  C 1127 534.36  1124.36 537  1121 537  C 1117.64 537  1115 534.36  1115 531  C 1115 527.64  1117.64 525  1121 525  Z " fill-rule="nonzero" fill="#ffffff" stroke="none" />
  <path d="M 1121 525.5  C 1124.08 525.5  1126.5 527.92  1126.5 531  C 1126.5 534.08  1124.08 536.5  1121 536.5  C 1117.92 536.5  1115.5 534.08  1115.5 531  C 1115.5 527.92  1117.92 525.5  1121 525.5  Z " stroke-width="1" stroke="#aaaaaa" fill="none" />
  <path d="M 1121 534  C 1119.32 534  1118 532.68  1118 531  C 1118 529.32  1119.32 528  1121 528  C 1122.68 528  1124 529.32  1124 531  C 1124 532.68  1122.68 534  1121 534  " fill-rule="nonzero" fill="#aaaaaa" stroke="none" />
</svg>