<?xml version="1.0" encoding="utf-8"?>
<svg version="1.1" xmlns:xlink="http://www.w3.org/1999/xlink" width="14px" height="14px" xmlns="http://www.w3.org/2000/svg">
  <g transform="matrix(1 0 0 1 -330 -424 )">
    <path d="M 9.72348837304688 2.54767468579852  C 9.68485171689775 1.12904710902574  8.52333952268639 -0.000702138463780959  7.10418604492187 0  C 5.6833488359375 0  4.52688371679687 1.12748867408982  4.4780465078125 2.54051189495041  L 1.16232558203125 2.54051189495041  C 0.793242505391628 2.54051171244563  0.493940761653049 2.83952201557403  0.493581388671875 3.20860490862293  C 0.493940769193429 3.57768779633155  0.793242510724556 3.8766980911357  1.16232558203125 3.87669790862357  L 1.9007441796875 3.87669790862357  L 1.9007441796875 11.3660465694114  C 1.9007441796875 12.7722325814476  2.8553488359375 13.9205581366235  4.03232558203125 13.9205581366235  L 10.0370232539063 13.9205581366235  C 11.214 13.9205581366235  12.1686046425781 12.779069790272  12.16860465625 11.3660465694114  L 12.16860465625 3.88418628149532  L 12.8373488359375 3.88418628149532  C 13.2065589429159 3.88418633280018  13.505913277188 3.58497775405827  13.5060930292969 3.21576769947104  C 13.5057336563157 2.84668480642214  13.2064319125771 2.54767450329374  12.8373488359375 2.54767468579852  L 9.72348837304688 2.54767468579852  Z M 8.36158138867187 2.42102352469795  L 5.63809302929687 2.42102352469795  C 5.68660465625 1.74055842147102  6.27558140234375 1.21051192605445  7.0032558203125 1.21051192605445  C 7.73093023828125 1.21051192605445  8.32023256640625 1.74023283944738  8.36158138867187 2.42102352469795  Z M 4.10688371679688 12.7097209559564  L 4.10688371679687 12.7028837471319  C 3.683302328125 12.7028837471319  3.21706976171875 12.1676279393371  3.21706976171875 11.4034884337702  L 3.21706976171875 3.93400023540847  L 11.0850697617187 3.93400023540847  L 11.0850697617187 11.4103256425947  C 11.0850697617187 12.1747907438571  10.6191627910156 12.7097209559564  10.1955813886719 12.7097209559564  L 4.10688371679688 12.7097209559564  Z " fill-rule="nonzero" fill="#d81e06" stroke="none" transform="matrix(1 0 0 1 330 424 )" />
  </g>
</svg>