<?xml version="1.0" encoding="utf-8"?>
<svg version="1.1" xmlns:xlink="http://www.w3.org/1999/xlink" width="7px" height="7px" xmlns="http://www.w3.org/2000/svg">
  <g transform="matrix(1 0 0 1 -334 -429 )">
    <path d="M 1.53283720898437 6.22728682552083  C 1.86590697070313 6.22728682552083  2.13809302929687 5.93100775130208  2.13809302929687 5.55984496028646  L 2.13809302929687 1.75054263216146  C 2.13809302929687 1.37937984114583  1.865906984375 1.08310076692708  1.53283720898437 1.08310078059896  C 1.20009302929688 1.08310078059896  0.927581388671875 1.37937985481771  0.927581388671875 1.75054263216146  L 0.927581388671875 5.55984496028646  C 0.927581388671875 5.93100775130208  1.19227906054688 6.22728682552083  1.53316279101562 6.22728682552083  Z M 3.65106976171875 6.22728682552083  C 3.9841395234375 6.22728682552083  4.25665115039062 5.93100775130208  4.2566511640625 5.55984496028646  L 4.2566511640625 1.75054263216146  C 4.2566511640625 1.37937984114583  3.98413953710937 1.08310076692708  3.65106976171875 1.08310078059896  C 3.31832558203125 1.08310078059896  3.04581394140625 1.37937985481771  3.04581395507812 1.75054263216146  L 3.04581395507812 5.55984496028646  C 3.04581395507812 5.93100775130208  3.31832558203125 6.22728682552083  3.65139534375 6.22728682552083  Z M 4.86158138867187 5.55984496028646  C 4.86158138867187 5.93100775130208  5.12627906054687 6.22728682552083  5.46683720898437 6.22728682552083  C 5.79958138867188 6.22728682552083  6.07209302929688 5.93100775130208  6.07209302929688 5.55984496028646  L 6.07209302929688 1.75054263216146  C 6.07209302929688 1.37937984114583  5.79958140234375 1.08310076692708  5.46683720898437 1.08310078059896  C 5.134093015625 1.08310079427083  4.86158138867187 1.37937985481771  4.86158138867187 1.75054263216146  L 4.86158138867187 5.55984496028646  Z " fill-rule="nonzero" fill="#d81e06" stroke="none" transform="matrix(1 0 0 1 334 429 )" />
  </g>
</svg>