<?xml version="1.0" encoding="utf-8"?>
<svg version="1.1" xmlns:xlink="http://www.w3.org/1999/xlink" width="6px" height="6px" xmlns="http://www.w3.org/2000/svg">
  <g transform="matrix(1 0 0 1 -52 -426 )">
    <path d="M 5.8125 3  C 5.8125 4.5533008588991  4.5533008588991 5.8125  3 5.8125  C 1.44669914110089 5.8125  0.187499999999999 4.5533008588991  0.187499999999999 3  C 0.187499999999999 1.44669914110089  1.44669914110089 0.187499999999999  3 0.187499999999999  C 4.5533008588991 0.187499999999999  5.8125 1.44669914110089  5.8125 3  Z M 4.6875 3  C 4.6875 2.06801948466054  3.93198051533946 1.3125  3 1.3125  C 2.06801948466054 1.3125  1.3125 2.06801948466054  1.3125 3  C 1.3125 3.93198051533946  2.06801948466054 4.6875  3 4.6875  C 3.93198051533946 4.6875  4.6875 3.93198051533946  4.6875 3  Z " fill-rule="nonzero" fill="#7f7f7f" stroke="none" transform="matrix(1 0 0 1 52 426 )" />
  </g>
</svg>