<?xml version="1.0" encoding="utf-8"?>
<svg version="1.1" xmlns:xlink="http://www.w3.org/1999/xlink" width="18px" height="18px" xmlns="http://www.w3.org/2000/svg">
  <g transform="matrix(1 0 0 1 -46 -420 )">
    <path d="M 10.74375 17.2575  C 10.170520160805 17.3791184900737  9.58598606970845 17.4394574930256  9 17.4375  C 8.41401393029154 17.4394574930256  7.82947983919498 17.3791184900737  7.25625 17.2575  C 7.08416093535642 17.2173584034466  6.93943818155919 17.1015802004089  6.8625 16.9425  L 5.7375 14.4675  L 3.13875 14.74875  C 2.95723286642585 14.7591697611645  2.78031947500151 14.6892272575781  2.655 14.5575  C 1.8536397952659 13.641086068859  1.25892146344571 12.5629192866559  0.91125 11.39625  C 0.866759059023338 11.2260523830036  0.899696918063114 11.0448941582848  1.00125 10.90125  L 2.4525 9  L 1.00125 7.09875  C 0.899696918063112 6.95510584171516  0.866759059023337 6.77394761699639  0.91125 6.60375  C 1.25892146344571 5.43708071334406  1.8536397952659 4.35891393114099  2.655 3.4425  C 2.7794203951746 3.30944594689067  2.95698159863507 3.23924733156909  3.13875 3.25125  L 5.7375 3.5325  L 6.8625 1.0575  C 6.93943818155919 0.898419799591147  7.08416093535642 0.782641596553361  7.25625 0.742499999999999  C 8.40676053121593 0.506383440127715  9.59323946878407 0.506383440127715  10.74375 0.742499999999999  C 10.9158390646436 0.782641596553362  11.0605618184408 0.898419799591147  11.1375 1.0575  L 12.2625 3.5325  L 14.86125 3.25125  C 15.0430184013649 3.23924733156909  15.2205796048254 3.30944594689067  15.345 3.4425  C 16.1463602047341 4.35891393114099  16.7410785365543 5.43708071334406  17.08875 6.60375  C 17.1332409409767 6.77394761699639  17.1003030819369 6.95510584171516  16.99875 7.09875  L 15.5475 9  L 16.99875 10.90125  C 17.1003030819369 11.0448941582848  17.1332409409767 11.2260523830036  17.08875 11.39625  C 16.7410785365543 12.5629192866559  16.1463602047341 13.641086068859  15.345 14.5575  C 15.2205796048254 14.6905540531093  15.0430184013649 14.7607526684309  14.86125 14.74875  L 12.2625 14.4675  L 11.1375 16.9425  C 11.0605618184408 17.1015802004089  10.9158390646436 17.2173584034466  10.74375 17.2575  Z M 6.5925 13.635  L 7.7625 16.21125  C 8.58198186484598 16.3461938624327  9.41801813515402 16.3461938624327  10.2375 16.21125  L 11.3625 13.635  C 11.4657948513691 13.4161209752453  11.6953310303213 13.2856004028999  11.93625 13.30875  L 14.63625 13.59  C 15.1840096898219 12.9227561856766  15.6035727930096 12.1599141798808  15.87375 11.34  L 14.4 9.3375  C 14.2420498198559 9.14022028823063  14.2420498198559 8.85977971176937  14.4 8.6625  L 15.91875 6.66  C 15.6485727930096 5.84008582011923  15.2290096898219 5.07724381432341  14.68125 4.41  L 11.98125 4.69125  C 11.7410542280747 4.71107159007515  11.5132850944643 4.58155580821824  11.4075 4.365  L 10.2825 1.78875  C 9.46301813515402 1.65380613756729  8.62698186484598 1.6538061375673  7.8075 1.78875  L 6.6825 4.365  C 6.57671490553569 4.58155580821824  6.34894577192526 4.71107159007515  6.10875 4.69125  L 3.375 4.41  C 2.82724031017807 5.07724381432341  2.40767720699036 5.84008582011923  2.1375 6.66  L 3.6 8.6625  C 3.75795018014414 8.85977971176937  3.75795018014414 9.14022028823063  3.6 9.3375  L 2.08125 11.34  C 2.35142720699037 12.1599141798808  2.77099031017807 12.9227561856766  3.31875 13.59  L 6.01875 13.30875  C 6.25894577192526 13.2889284099248  6.48671490553569 13.4184441917818  6.5925 13.635  Z " fill-rule="nonzero" fill="#7f7f7f" stroke="none" transform="matrix(1 0 0 1 46 420 )" />
  </g>
</svg>