<?xml version="1.0" encoding="utf-8"?>
<svg version="1.1" xmlns:xlink="http://www.w3.org/1999/xlink" width="18px" height="17px" xmlns="http://www.w3.org/2000/svg">
  <g transform="matrix(1 0 0 1 -46 -371 )">
    <path d="M 12 2.276096  C 12.3552356395819 1.7993762603609  12.1261681386556 1.35582414978578  11.74833 1.10343033333333  C 11.3717039608193 0.848207942641879  10.8986306125743 0.819319711698433  10.49733 1.027038  L 5.04792 3.82446166666667  C 5.03689424645144 3.83017747181609  5.02480083768617 3.83314184427849  5.01255 3.83313166666667  L 2.286 3.83313166666667  C 1.57087113657293 3.83313106865648  0.990893911079066 4.45314551826765  0.99 5.21859766666667  L 0.99 11.7971046666667  C 0.990893911079067 12.5625568150657  1.57087113657293 13.1825712646769  2.286 13.1825706666667  L 5.03793 13.1825706666667  C 5.04971016066655 13.1826226042208  5.06134248910414 13.1853821703808  5.07204 13.1906626666667  L 10.51407 15.8849133333333  C 10.6846626166653 15.9694546476014  10.8704005651738 16.0132452139064  11.0583904378733 16.0132452139064  C 11.7734870086631 16.0132452139064  12.353352068426 15.3930849226289  12 14.627667  L 12 2.276096  Z M 2.20437 11.7971046666667  L 2.20437 5.21859766666667  C 2.20437 5.17071457885634  2.24063493526371 5.13189766666667  2.28537 5.13189766666667  L 4.43052 5.13189766666667  L 4.43052 11.8842863333333  L 2.286 11.8842863333333  C 2.24063367155052 11.8842889663118  2.20436873628681 11.8454720541221  2.20436873628681 11.7975889663118  Z M 11 2.276096  L 11 14.627667  C 11.139660559184 14.6277985193557  11.1396608387771 14.6279300399039  11.1396608387771 14.6280615606215  C 11.1396608387771 14.6759446484318  11.1033959035134 14.7147615606215  11.0586608387771 14.7147615606215  C 11.0467775169038 14.7147615606215  11.0350397434253 14.7119628764394  11.02428 14.706564  L 5.64489 12.0432363333333  L 5.64489 4.95849766666667  L 11.02329 2.19787333333333  C 11.0343133417892 2.19214615356289  11.046406966366 2.18917053790973  11.0586602738827 2.18917053790973  C 11.103395338619 2.18917053790973  11.1396602738827 2.2279874500994  11.1396602738827 2.27587053790973  C 11.1396602738827 2.27594569203483  11.1396601825884 2.27602084612901  11 2.276096  Z M 16.49286 7.87383333333333  L 13.85172 7.87383333333333  C 13.5167040707526 7.87383333333333  13.24512 8.16452887573153  13.24512 8.52312  C 13.24512 8.88171112426847  13.5167040707526 9.17240666666667  13.85172 9.17240666666667  L 16.49286 9.17240666666667  C 16.8278759292474 9.17240666666667  17.09946 8.88171112426847  17.09946 8.52312  C 17.09946 8.16452887573153  16.8278759292474 7.87383333333333  16.49286 7.87383333333333  Z M 13.6320112690715 5.00888002294583  C 13.6320112690715 5.36740373768925  13.9034970603469 5.65807135050016  14.23845 5.65816666666667  C 14.399436376961 5.65840142665956  14.5538832568852 5.59000821774695  14.66766 5.468101  L 16.53525 3.4714  C 16.6482034756578 3.34970522559178  16.7115981872186 3.18512675694231  16.7115981872186 3.01358397896321  C 16.7115981872186 2.65483324440204  16.4398932333484 2.36400831229655  16.1047281872186 2.36400831229655  C 15.9443310311718 2.36400831229655  15.7904567680762 2.4319758825401  15.67674 2.55305433333333  L 13.80915 4.55033333333333  C 13.6957148840655 4.67205170031574  13.6320112690715 4.83695680954139  13.6320112690715 5.00888002294583  Z M 16.53525 13.5746473333333  L 14.66766 11.577561  C 14.5538351953466 11.4556624068367  14.399419798146 11.3871751164689  14.238405 11.3871751164689  C 13.9032238467369 11.3871751164689  13.6315058354553 11.6780140248406  13.6315058354553 12.036782  C 13.6315058354553 12.2090094472634  13.6954031423655 12.3741878827712  13.80915 12.496003  L 15.67674 14.492993  C 15.7904567680762 14.6140714507931  15.9443310311717 14.6820390210366  16.1047281872185 14.6820390210366  C 16.4398932333483 14.6820390210366  16.7115981872185 14.3912140889311  16.7115981872185 14.03246335437  C 16.7115981872185 13.8609205763909  16.6482034756577 13.6963421077415  16.53525 13.5746473333333  Z " fill-rule="nonzero" fill="#7f7f7f" stroke="none" transform="matrix(1 0 0 1 46 371 )" />
  </g>
</svg>