<?xml version="1.0" encoding="utf-8"?>
<svg version="1.1" xmlns:xlink="http://www.w3.org/1999/xlink" width="16px" height="11px" xmlns="http://www.w3.org/2000/svg">
  <g transform="matrix(1 0 0 1 -48 -476 )">
    <path d="M 15.590005859375 1.91  C 15.590005859375 1.19  14.99001171875 0.590005859374999  14.3 0.590005859374999  L 1.7 0.590005859374999  C 0.98 0.590005859374999  0.409994140625 1.19  0.409994140625 1.88001171875  L 0.409994140625 9.680005859375  C 0.409994140625 10.400005859375  1.00998828125 11  1.7 11  L 14.3 11  C 15.02 11  15.590005859375 10.400005859375  15.590005859375 9.709994140625  L 15.590005859375 1.91  Z M 8 9.500005859375  C 6.979994140625 9.500005859375  6.169994140625 8.690005859375  6.169994140625 7.67  C 6.169994140625 6.890005859375  6.65 6.23  7.30998828125 5.96  L 7.30998828125 3.17  C 7.30998828125 2.779994140625  7.609994140625 2.480005859375  7.999982421875 2.480005859375  C 8.389970703125 2.480005859375  8.6899765625 2.78001171875  8.6899765625 3.17  L 8.6899765625 5.96  C 9.349982421875 6.23  9.829970703125 6.890005859375  9.829970703125 7.67  C 9.829970703125 8.690005859375  9.019970703125 9.500005859375  7.99996484375 9.500005859375  Z " fill-rule="nonzero" fill="#7f7f7f" stroke="none" transform="matrix(1 0 0 1 48 476 )" />
  </g>
</svg>