<?xml version="1.0" encoding="utf-8"?>
<svg version="1.1" xmlns:xlink="http://www.w3.org/1999/xlink" width="8px" height="5px" xmlns="http://www.w3.org/2000/svg">
  <g transform="matrix(1 0 0 1 -53 -530 )">
    <path d="M 4.5334545390625 2.91836363476563  C 4.88772726953125 3.244  5.33281817382812 3.685  5.86381817382812 4.23890909570313  C 6.01814528084193 4.39992668598663  6.2315128977086 4.49096964320166  6.45454545214844 4.49096964320166  C 6.90644823193789 4.49096964320166  7.27278781702979 4.12463005810977  7.27278781702979 3.67272727832031  C 7.27278781702979 3.46172440690354  7.19127591282544 3.25887826268369  7.04527273046875 3.1065454609375  L 6.70572726953125 2.75472726953125  C 5.29272726953125 1.30327273046875  4.58663636523438 0.72727273046875  4 0.72727273046875  C 3.3675454609375 0.72727273046875  2.59763636523437 1.39409090429687  0.954727269531249 3.1065454609375  C 0.808724087174558 3.25887826268369  0.727212182970209 3.46172440690354  0.727212182970209 3.67272727832031  C 0.727212182970209 4.12463005810977  1.09355176806211 4.49096964320166  1.54545454785156 4.49096964320166  C 1.76848710229139 4.49096964320166  1.98185471915807 4.39992668598663  2.13618182617187 4.23890909570313  L 2.51827273046875 3.8445454609375  C 2.90243378181499 3.44646780171369  3.3017274919326 3.06327684065834  3.71527273046875 2.69581817382813  L 3.81836363476562 2.60827273046875  L 3.99918182617187 2.46263636523438  L 4.18163636523438 2.60827273046875  L 4.28472726953125 2.69581817382813  L 4.5334545390625 2.91836363476563  Z " fill-rule="nonzero" fill="#7f7f7f" stroke="none" transform="matrix(1 0 0 1 53 530 )" />
  </g>
</svg>