<?xml version="1.0" encoding="utf-8"?>
<svg version="1.1" xmlns:xlink="http://www.w3.org/1999/xlink" width="18px" height="18px" xmlns="http://www.w3.org/2000/svg">
  <g transform="matrix(1 0 0 1 -48 -525 )">
    <path d="M 18 9  C 18 4.0295454609375  13.9704545390625 0  9 0  C 4.0295454609375 0  0 4.0295454609375  0 9  C 0 13.9704545390625  4.0295454609375 18  9 18  C 13.9704545390625 18  18 13.9704545390625  18 9  Z M 9 1.63636363476562  C 13.0668240678184 1.63636363476562  16.3636363652344 4.9331759321816  16.3636363652344 9  C 16.3636363652344 13.0668240678184  13.0668240678184 16.3636363652344  9 16.3636363652344  C 4.9331759321816 16.3636363652344  1.63636363476562 13.0668240678184  1.63636363476562 9  C 1.63636363476562 4.9331759321816  4.9331759321816 1.63636363476562  9 1.63636363476562  Z " fill-rule="nonzero" fill="#7f7f7f" stroke="none" transform="matrix(1 0 0 1 48 525 )" />
  </g>
</svg>