<?xml version="1.0" encoding="utf-8"?>
<svg version="1.1" xmlns:xlink="http://www.w3.org/1999/xlink" width="12px" height="11px" xmlns="http://www.w3.org/2000/svg">
  <g transform="matrix(1 0 0 1 -5 -67 )">
    <path d="M 8.23596 1.472768  C 8.23682375972128 1.16430228611588  8.08411209243709 0.877297979273154  7.83222 0.713984333333333  C 7.58113597387953 0.548840433474157  7.26575374171617 0.530148048746045  6.99822 0.664554  L 3.36528 2.47465166666667  C 3.3579294976343 2.47835012882218  3.34986722512412 2.4802682521802  3.3417 2.48026166666667  L 1.524 2.48026166666667  C 1.04724742438195 2.4802612797189  0.660595940719377 2.88144710005554  0.66 3.37673966666667  L 0.66 7.63342066666667  C 0.660595940719378 8.12871323327779  1.04724742438196 8.52989905361444  1.524 8.52989866666667  L 3.35862 8.52989866666667  C 3.36647344044437 8.52993227331937  3.37422832606943 8.5317178749523  3.38136 8.53513466666667  L 7.00938 10.2784733333333  C 7.12310841111021 10.3331765366832  7.24693371011588 10.3615116089983  7.37226029191551 10.3615116089983  C 7.84899133910873 10.3615116089983  8.23556804561731 9.9602314205246  8.23596 9.464961  L 8.23596 1.472768  Z M 1.46958 7.63342066666667  L 1.46958 3.37673966666667  C 1.46958 3.34575649220116  1.49375662350914 3.32063966666667  1.52358 3.32063966666667  L 2.95368 3.32063966666667  L 2.95368 7.68983233333333  L 1.524 7.68983233333333  C 1.49375578103368 7.68983403702529  1.46957915752454 7.6647172114908  1.46957915752454 7.63373403702529  Z M 7.42644 1.472768  L 7.42644 9.464961  C 7.42644055918472 9.49619947839706  7.40226393567558 9.52131630393155  7.37244055918472 9.52131630393155  C 7.36451834460254 9.52131630393155  7.35669316228352 9.51950539063728  7.34952 9.516012  L 3.76326 7.79268233333333  L 3.76326 3.20843966666667  L 7.34886 1.42215333333333  C 7.35620889452611 1.41844751112893  7.36427131091065 1.41652211276512  7.37244018258848 1.41652211276512  C 7.40226355907934 1.41652211276512  7.42644018258848 1.44163893829961  7.42644018258848 1.47262211276512  Z M 10.99524 5.09483333333333  L 9.23448 5.09483333333333  C 9.01113604716843 5.09483333333333  8.83008 5.28293044900276  8.83008 5.51496  C 8.83008 5.74698955099725  9.01113604716843 5.93508666666667  9.23448 5.93508666666667  L 10.99524 5.93508666666667  C 11.2185839528316 5.93508666666667  11.39964 5.74698955099725  11.39964 5.51496  C 11.39964 5.28293044900276  11.2185839528316 5.09483333333333  10.99524 5.09483333333333  Z M 9.08800751271436 3.2410400148473  C 9.08800751271436 3.47302594791657  9.26899804023125 3.66110499150011  9.4923 3.66116666666667  C 9.59962425130733 3.66131857019148  9.70258883792346 3.61706414089509  9.77844 3.538183  L 11.0235 2.2462  C 11.0988023171052 2.16745632244174  11.1410654581457 2.06096437213914  11.1410654581457 1.94996610403502  C 11.1410654581457 1.71783327578956  10.9599288222323 1.52965243736835  10.7364854581457 1.52965243736835  C 10.6295540207812 1.52965243736835  10.5269711787175 1.5736314534083  10.45116 1.65197633333333  L 9.2061 2.94433333333333  C 9.13047658937703 3.02309227667489  9.08800751271436 3.12979558264443  9.08800751271436 3.2410400148473  Z M 11.0235 8.78359533333333  L 9.77844 7.491363  C 9.70255679689776 7.41248743971788  9.59961319876401 7.36817213418574  9.49227 7.36817213418574  C 9.26881589782463 7.36817213418574  9.08767055697023 7.55636201607336  9.08767055697023 7.788506  C 9.08767055697023 7.89994728940571  9.130268761577 8.00682745355787  9.2061 8.085649  L 10.45116 9.377819  C 10.5269711787175 9.45616387992497  10.6295540207811 9.50014289596488  10.7364854581456 9.50014289596488  C 10.9599288222322 9.50014289596488  11.1410654581456 9.31196205754367  11.1410654581456 9.07982922929821  C 11.1410654581456 8.96883096119414  11.0988023171051 8.86233901089159  11.0235 8.78359533333333  Z " fill-rule="nonzero" fill="#ffffff" stroke="none" transform="matrix(1 0 0 1 5 67 )" />
  </g>
</svg>