<?xml version="1.0" encoding="utf-8"?>
<svg version="1.1" xmlns:xlink="http://www.w3.org/1999/xlink" width="40px" height="40px" xmlns="http://www.w3.org/2000/svg">
  <g transform="matrix(1 0 0 1 -60 -1079 )">
    <path d="M 80 1079  C 91.2 1079  100 1087.8  100 1099  C 100 1110.2  91.2 1119  80 1119  C 68.8 1119  60 1110.2  60 1099  C 60 1087.8  68.8 1079  80 1079  Z " fill-rule="nonzero" fill="#ffffff" stroke="none" />
    <path d="M 80 1079.5  C 90.92 1079.5  99.5 1088.08  99.5 1099  C 99.5 1109.92  90.92 1118.5  80 1118.5  C 69.08 1118.5  60.5 1109.92  60.5 1099  C 60.5 1088.08  69.08 1079.5  80 1079.5  Z " stroke-width="1" stroke="#d7d7d7" fill="none" />
  </g>
</svg>