<?xml version="1.0" encoding="utf-8"?>
<svg version="1.1" xmlns:xlink="http://www.w3.org/1999/xlink" width="16px" height="15px" xmlns="http://www.w3.org/2000/svg">
  <g transform="matrix(1 0 0 1 -371 -193 )">
    <path d="M 15.1484375 14.059375  C 15.1296875 14.06171875  15.10625 14.06171875  15.0875 14.06171875  C 14.6328125 14.06171875  14.24609375 13.71015625  14.21328125 13.2484375  L 13.775 7.09609375  C 13.56171875 4.11953125  11.05859375 1.7875  8.075 1.7875  C 5.09140625 1.7875  2.58828125 4.11953125  2.375 7.09609375  L 2.11015625 10.7875  C 2.075 11.2703125  1.66953125 11.63125  1.17265625 11.5984375  C 0.689843750000001 11.565625  0.326562500000001 11.14375  0.361718750000001 10.66328125  L 0.624218750000001 6.96953125  C 0.900781250000001 3.08125  4.17265625 0.0343749999999989  8.07265625 0.0343749999999989  C 11.97265625 0.0343749999999989  15.24453125 3.08125  15.52109375 6.96953125  L 15.959375 13.121875  C 15.99453125 13.6046875  15.63125 14.02421875  15.1484375 14.059375  Z " fill-rule="nonzero" fill="#7f7f7f" stroke="none" transform="matrix(1 0 0 1 371 193 )" />
  </g>
</svg>