<?xml version="1.0" encoding="utf-8"?>
<svg version="1.1" xmlns:xlink="http://www.w3.org/1999/xlink" width="10px" height="22px" xmlns="http://www.w3.org/2000/svg">
  <g transform="matrix(1 0 0 1 -374 -189 )">
    <path d="M 9.3828125 18.29140625  C 8.86953125 20.18984375  7.13515625 21.51640625  5.16171875 21.51640625  C 3.190625 21.51640625  1.45390625 20.18984375  0.940624999999999 18.29140625  C 0.867968749999998 18.0265625  0.92421875 17.74765625  1.090625 17.5296875  C 1.25703125 17.3140625  1.51484375 17.18515625  1.78671875 17.18515625  L 8.53671875 17.18515625  C 8.80859375 17.18515625  9.06640625 17.31171875  9.2328125 17.5296875  C 9.4015625 17.74765625  9.45546875 18.0265625  9.3828125 18.29140625  Z M 7.07421875 18.940625  L 3.25390625 18.940625  C 3.73671875 19.4515625  4.4234375 19.765625  5.1640625 19.765625  C 5.9046875 19.765625  6.59140625 19.45390625  7.07421875 18.940625  Z M 7.79140625000001 4.91328125  C 7.79140625000001 5.39609375  7.40000000000001 5.78984375  6.91484375 5.78984375  C 6.4296875 5.78984375  6.03828125 5.39609375  6.03828125 4.91328125  L 6.03828125 3.16015625  C 6.03828125 2.67734375  5.64453125 2.28359375  5.16171875 2.28359375  C 4.6765625 2.28359375  4.28515625 2.67734375  4.28515625 3.16015625  L 4.28515625 4.91328125  C 4.28515625 5.39609375  3.89375 5.78984375  3.40859375 5.78984375  C 2.9234375 5.78984375  2.53203125 5.39609375  2.53203125 4.91328125  L 2.53203125 3.16015625  C 2.53203125 1.709375  3.7109375 0.53046875  5.16171875000001 0.53046875  C 6.6125 0.53046875  7.79140625000001 1.71171875  7.79140625000001 3.16015625  L 7.79140625000001 4.91328125  Z " fill-rule="nonzero" fill="#7f7f7f" stroke="none" transform="matrix(1 0 0 1 374 189 )" />
  </g>
</svg>