<?xml version="1.0" encoding="utf-8"?>
<svg version="1.1" xmlns:xlink="http://www.w3.org/1999/xlink" width="38px" height="42px" xmlns="http://www.w3.org/2000/svg">
  <g transform="matrix(1 0 0 1 -62 -623 )">
    <path d="M 0.631661985429788 18.3749989083418  C 0.631661985429788 8.22936824955606  8.85436995820099 0.0036785759728581  19 0  C 19.000917711691 0  19.0018354233898 0  19.0027531350912 0  C 29.150985413232 0  37.3777531350912 8.22676768145952  37.3777531350912 18.3749999097648  C 37.3777531350912 24.3361911476028  34.4859337396277 29.9269496750529  29.62075 33.3716250423718  C 30.242875 34.6605000360425  30.710125 36.0832500290557  30.983125 37.5978750216178  C 31.201 38.7607500159072  30.893875 39.9603750100161  30.14575 40.8791250055043  C 29.5652455972581 41.5836862478737  28.701394730469 41.9934863229795  27.7885 42  L 10.2115 42  C 9.29377606555153 41.9884637087998  8.428127796478 41.569601645176  7.851625 40.8555000056204  C 7.11220768167775 39.9430242697695  6.80739810729317 38.7535001189718  7.016875 37.5978750216178  C 7.28751817722895 36.1356056236889  7.75001347501808 34.7154626265737  8.392375 33.374250042359  C 3.52502936551964 29.9298512218691  0.631661985429788 24.3377949410269  0.631661985429788 18.3749989083418  Z M 26.7385 37  C 26.5544330478863 36.9694588340063  26.2852516540128 36.162794334105  25.93525 35.3902500324589  L 25.59925 35.5293750317757  C 23.55175 36.3168750279084  21.32575 36.7500000257815  19 36.7500000257815  C 16.6270231786541 36.7527415460459  14.2761081393734 36.2945047905448  12.077875 35.4007500324073  C 11.736625 36.1357500287979  11.461 36.9390000248533  11.264125 37  L 26.7385 37  Z M 19 4.2000001856266  C 11.1713636711485 4.2000001856266  4.825 10.5463638256097  4.825 18.3750001160166  C 4.825 26.2036364064236  11.1713636711485 32.5500000464067  19 32.5500000464067  C 26.8286363288515 32.5500000464067  33.175 26.2036364064236  33.175 18.3750001160166  C 33.175 10.5463638256097  26.8286363288515 4.2000001856266  19 4.2000001856266  Z " fill-rule="nonzero" fill="#727484" stroke="none" transform="matrix(1 0 0 1 62 623 )" />
  </g>
</svg>