<?xml version="1.0" encoding="utf-8"?>
<svg version="1.1" xmlns:xlink="http://www.w3.org/1999/xlink" width="16px" height="22px" xmlns="http://www.w3.org/2000/svg">
  <g transform="matrix(1 0 0 1 -73 -630 )">
    <path d="M 8 6.125  C 12.3492424049175 6.125  15.875 9.6507575950825  15.875 14  C 15.875 18.3492424049175  12.3492424049175 21.875  8 21.875  C 3.6507575950825 21.875  0.125 18.3492424049175  0.125 14  C 0.125 9.6507575950825  3.6507575950825 6.125  8 6.125  Z M 7.99999990612269 10.85  C 6.26030294415569 10.85  4.84999990612269 12.260303038033  4.84999990612269 14  C 4.84999990612269 15.739696961967  6.26030294415569 17.15  7.99999990612269 17.15  C 9.739696961967 17.15  11.15 15.739696961967  11.15 14  C 11.15 12.260303038033  9.739696961967 10.85  8 10.85  Z M 13.25 0.875  C 14.6997474683058 0.875  15.875 2.05025253169417  15.875 3.5  C 15.875 4.94974746830583  14.6997474683058 6.125  13.25 6.125  C 11.8002525316942 6.125  10.625 4.94974746830583  10.625 3.5  C 10.625 2.05025253169417  11.8002525316942 0.875  13.25 0.875  Z " fill-rule="nonzero" fill="#68a2fd" stroke="none" transform="matrix(1 0 0 1 73 630 )" />
  </g>
</svg>