<?xml version="1.0" encoding="utf-8"?>
<svg version="1.1" xmlns:xlink="http://www.w3.org/1999/xlink" width="12px" height="9px" xmlns="http://www.w3.org/2000/svg">
  <g transform="matrix(1 0 0 1 -40 -163 )">
    <path d="M 12 2.2588615384615  C 10.3947692307692 0.952476923076887  8.298 0.0390461538461864  5.99584615384616 0.0390461538461864  C 3.69784615384616 0.0390461538461864  1.60384615384615 0.949984615384608  0 2.2522153846154  L 0.939692307692312 3.22753846153844  C 2.29384615384615 2.13216923076925  4.05876923076923 1.46423076923074  5.99584615384616 1.46423076923074  C 7.93569230769231 1.46423076923074  9.70384615384616 2.13466153846153  11.0593846153846 3.23293846153845  L 12 2.2588615384615  Z M 5.99584615384616 2.8516153846154  C 4.45246153846153 2.8516153846154  3.0443076923077 3.41944615384614  1.96153846153847 4.28843076923079  L 2.9556923076923 5.32066153846156  C 3.77446153846154 4.67099999999999  4.83507692307693 4.27680000000001  5.99584615384616 4.27680000000001  C 7.15892307692307 4.27680000000001  8.22046153846154 4.67224615384615  9.04015384615384 5.3239846153846  L 10.0356923076923 4.29341538461537  C 8.952 3.42110769230769  7.542 2.8516153846154  5.99584615384616 2.8516153846154  Z M 5.99584615384616 5.62513846153848  C 5.21723076923077 5.62513846153848  4.50415384615384 5.92338461538461  3.95030769230769 6.35289230769229  L 5.99584615384616 8.47633846153843  L 8.04415384615385 6.35496923076926  C 7.48938461538461 5.9238  6.77584615384615 5.62513846153848  5.99584615384616 5.62513846153848  Z " fill-rule="nonzero" fill="#353535" stroke="none" transform="matrix(1 0 0 1 40 163 )" />
  </g>
</svg>