<?xml version="1.0" encoding="utf-8"?>
<svg version="1.1" xmlns:xlink="http://www.w3.org/1999/xlink" width="19px" height="10px" xmlns="http://www.w3.org/2000/svg">
  <g transform="matrix(1 0 0 1 -378 -162 )">
    <path d="M 1.71875 1.66666666015624  L 1.71875 8.33333333984376  L 15.8854166601562 8.33333333984376  L 15.8854166601562 1.66666666015624  L 1.71875 1.66666666015624  Z M 18.3854166601562 4.16666666015624  C 18.3854166601562 3.70833333984373  18.0104166601563 3.33333333984376  17.5520833398438 3.33333333984376  L 17.5520833398438 1.66666667968749  C 17.5520833398438 0.750000019531228  16.8020833398438 0  15.8854166796875 0  L 1.71875 0  C 0.802083339843819 0  0.0520833398438185 0.749999999999972  0.0520833398438185 1.66666666015624  L 0.0520833398438185 8.33333332031251  C 0.0520833398438185 9.24999998046877  0.802083339843819 9.99999998046874  1.71875 10  L 15.8854166601562 10  C 16.8020833203125 9.99999998046874  17.5520833203125 9.24999998046877  17.5520833203125 8.33333332031251  L 17.5520833203125 6.66666666015624  C 18.0104166601563 6.66666666015624  18.3854166601562 6.29166666015627  18.3854166601562 5.83333332031251  L 18.3854166601562 4.16666666015624  Z M 16.71875 1.66666666015624  L 16.71875 4.16666666015624  L 16.71875 5.83333332031251  L 16.71875 8.33333332031251  C 16.71875 8.79166666015627  16.34375 9.16666666015624  15.8854166601562 9  L 1.71875 9  C 1.26041666015624 9.16666666015624  0.885416660156182 8.79166666015627  0.885416660156182 8.33333332031251  L 0.885416660156182 1.66666666015624  C 0.885416660156182 1.20833332031248  1.26041666015624 0.833333320312505  1.71875 1  L 15.8854166601562 1  C 16.34375 0.833333320312505  16.71875 1.20833332031248  16.71875 1.66666666015624  Z " fill-rule="nonzero" fill="#353535" stroke="none" transform="matrix(1 0 0 1 378 162 )" />
  </g>
</svg>