<?xml version="1.0" encoding="utf-8"?>
<svg version="1.1" xmlns:xlink="http://www.w3.org/1999/xlink" width="12px" height="12px" viewBox="559 300  12 12" xmlns="http://www.w3.org/2000/svg">
  <path d="M 565 300  C 568.36 300  571 302.64  571 306  C 571 309.36  568.36 312  565 312  C 561.64 312  559 309.36  559 306  C 559 302.64  561.64 300  565 300  Z " fill-rule="nonzero" fill="#ffffff" stroke="none" />
  <path d="M 565 300.5  C 568.08 300.5  570.5 302.92  570.5 306  C 570.5 309.08  568.08 311.5  565 311.5  C 561.92 311.5  559.5 309.08  559.5 306  C 559.5 302.92  561.92 300.5  565 300.5  Z " stroke-width="1" stroke="#aaaaaa" fill="none" />
  <path d="M 565 309  C 563.32 309  562 307.68  562 306  C 562 304.32  563.32 303  565 303  C 566.68 303  568 304.32  568 306  C 568 307.68  566.68 309  565 309  " fill-rule="nonzero" fill="#aaaaaa" stroke="none" />
</svg>