<?xml version="1.0" encoding="utf-8"?>
<svg version="1.1" xmlns:xlink="http://www.w3.org/1999/xlink" width="12px" height="12px" viewBox="559 680  12 12" xmlns="http://www.w3.org/2000/svg">
  <path d="M 565 680  C 568.36 680  571 682.64  571 686  C 571 689.36  568.36 692  565 692  C 561.64 692  559 689.36  559 686  C 559 682.64  561.64 680  565 680  Z " fill-rule="nonzero" fill="#ffffff" stroke="none" />
  <path d="M 565 680.5  C 568.08 680.5  570.5 682.92  570.5 686  C 570.5 689.08  568.08 691.5  565 691.5  C 561.92 691.5  559.5 689.08  559.5 686  C 559.5 682.92  561.92 680.5  565 680.5  Z " stroke-width="1" stroke="#aaaaaa" fill="none" />
  <path d="M 565 689  C 563.32 689  562 687.68  562 686  C 562 684.32  563.32 683  565 683  C 566.68 683  568 684.32  568 686  C 568 687.68  566.68 689  565 689  " fill-rule="nonzero" fill="#aaaaaa" stroke="none" />
</svg>