<?xml version="1.0" encoding="utf-8"?>
<svg version="1.1" xmlns:xlink="http://www.w3.org/1999/xlink" width="12px" height="12px" viewBox="559 525  12 12" xmlns="http://www.w3.org/2000/svg">
  <path d="M 565 525  C 568.36 525  571 527.64  571 531  C 571 534.36  568.36 537  565 537  C 561.64 537  559 534.36  559 531  C 559 527.64  561.64 525  565 525  Z " fill-rule="nonzero" fill="#f0f0f0" stroke="none" />
  <path d="M 565 525.5  C 568.08 525.5  570.5 527.92  570.5 531  C 570.5 534.08  568.08 536.5  565 536.5  C 561.92 536.5  559.5 534.08  559.5 531  C 559.5 527.92  561.92 525.5  565 525.5  Z " stroke-width="1" stroke="#aaaaaa" fill="none" />
  <path d="M 565 534  C 563.32 534  562 532.68  562 531  C 562 529.32  563.32 528  565 528  C 566.68 528  568 529.32  568 531  C 568 532.68  566.68 534  565 534  " fill-rule="nonzero" fill="#aaaaaa" stroke="none" />
</svg>