<?xml version="1.0" encoding="utf-8"?>
<svg version="1.1" xmlns:xlink="http://www.w3.org/1999/xlink" width="13px" height="13px" xmlns="http://www.w3.org/2000/svg">
  <g transform="matrix(1 0 0 1 -132 -187 )">
    <path d="M 138.5 187  C 142.14 187  145 189.86  145 193.5  C 145 197.14  142.14 200  138.5 200  C 134.86 200  132 197.14  132 193.5  C 132 189.86  134.86 187  138.5 187  Z " fill-rule="nonzero" fill="#ffffff" stroke="none" />
    <path d="M 138.5 187.5  C 141.86 187.5  144.5 190.14  144.5 193.5  C 144.5 196.86  141.86 199.5  138.5 199.5  C 135.14 199.5  132.5 196.86  132.5 193.5  C 132.5 190.14  135.14 187.5  138.5 187.5  Z " stroke-width="1" stroke="#797979" fill="none" />
  </g>
</svg>