<?xml version="1.0" encoding="utf-8"?>
<svg version="1.1" xmlns:xlink="http://www.w3.org/1999/xlink" width="21px" height="20px" xmlns="http://www.w3.org/2000/svg">
  <g transform="matrix(1 0 0 1 -36 -592 )">
    <path d="M 6.57637499121094 0.0264550354456019  L 14.4239999941406 0.0264550354456019  C 15.4886249970703 0.0264550354456019  16.4238749882812 0.789431231915509  16.6473749941406 1.83857143156829  C 16.8352499970703 2.72238096137153  17.6223749912109 3.36452380353009  18.5204999970703 3.36452380353009  C 19.8881249970703 3.36452380353009  21 4.48462962962963  21 5.86366402416088  L 21 17.4744047649016  C 21 18.8530555555556  19.8881249970703 19.9735449645544  18.5204999970703 20  L 2.47950000292969 20  C 1.11187500292969 19.9735449645544  0 18.8530555555556  0 17.4744047649016  L 0 5.86366402416088  C 0 4.48501323350694  1.11187500292969 3.36452380353009  2.47950000292969 3.36452380353009  C 3.37725000292969 3.36452380353009  4.16475000292969 2.72238094039352  4.35262500585938 1.83857143156829  C 4.57612499121094 0.789814814814815  5.51137500292969 0.0264550354456019  6.57637499121094 0.0264550354456019  Z M 15.75 11.1507936537905  C 15.75 8.19095239293981  13.3934999912109 5.78042328342014  10.5 5.78042328342014  C 7.60650000878906 5.78042328342014  5.25 8.19095239293981  5.25 11.1507936537905  C 5.25 14.1106349146412  7.60350000292969 16.5211640241609  10.5 16.5211640241609  C 13.3934999912109 16.5211640241609  15.75 14.1106349146412  15.75 11.1507936537905  Z M 7.50000000585938 11.1507936537905  C 7.50000000585938 9.45720898871528  8.84700001171875 8.08201059100116  10.5 8.08201059100116  C 12.1530000087891 8.08201059100116  13.4973749941406 9.45989419487847  13.4999999941406 11.1507936537905  C 13.4999999941406 12.8443783188657  12.1529999882813 14.2195767165799  10.5 14.2195767165799  C 8.84437499121094 14.2195767165799  7.50000000585938 12.8416931127025  7.50000000585938 11.1507936537905  Z " fill-rule="nonzero" fill="#ffffff" stroke="none" transform="matrix(1 0 0 1 36 592 )" />
  </g>
</svg>