<?xml version="1.0" encoding="utf-8"?>
<svg version="1.1" xmlns:xlink="http://www.w3.org/1999/xlink" width="26px" height="20px" xmlns="http://www.w3.org/2000/svg">
  <g transform="matrix(1 0 0 1 -36 -674 )">
    <path d="M 20.9900888888889 14.3923703703704  C 20.9931944444444 17.3816666666667  18.6857666666667 19.8103703703704  15.8488416666667 19.8103703703704  L 5.81168611111111 19.8103703703704  C 2.97631388888889 19.8103703703704  0.668886111111111 17.3816666666667  0.668886111111111 14.3955555555556  L 0.668886111111111 5.51366666666667  C 0.668886111111111 2.52755555555556  2.97631388888889 0.0988518518518517  5.81168611111111 0  L 15.8488416666667 0  C 16.6283361111111 0.0988518518518517  17.3783277777778 0.278814814814815  18.075525 0.630777777777777  C 18.382975 0.786851851851851  18.50875 1.16907407407407  18.3581305555556 1.48440740740741  C 18.2057080306681 1.79943152493289  17.8337732620282 1.92896104634979  17.5258416666667 1.77425925925926  C 17.0046754697991 1.5091215640217  16.4305975357226 1.37173539176409  15.8488416666667 1.37292592592593  L 5.81168611111111 1.37292592592593  C 3.66108888888889 1.37292592592593  1.91110833333333 3.22988888888889  1.91110833333333 5.51366666666667  L 1.91110833333333 14.393962962963  C 1.91110833333333 16.6777407407407  3.66108888888889 18.5347037037037  5.81168611111111 18.5347037037037  L 15.8488416666667 18.5347037037037  C 17.9994388888889 18.5347037037037  19.7494194444444 16.6777407407407  19.7494194444444 14.393962962963  L 19.7494194444444 12.5433703703704  C 19.7494194444444 12.2519259259259  19.9015916666667 11.9811851851852  20.1484833333333 11.8378518518519  C 20.3922694444444 11.6961111111111  20.6935083333333 11.6977037037037  20.9341888888889 11.8442222222222  L 23.8673861111111 13.6342962962963  C 23.9760805555556 13.7011851851852  24.0708 13.6725185185185  24.1313583333333 13.6374814814815  C 24.1779416666667 13.6104074074074  24.2850833333333 13.5291851851852  24.2850833333333 13.354  L 24.2850833333333 6.55362962962963  C 24.2850833333333 6.37844444444444  24.1779416666667 6.29722222222222  24.1313583333333 6.27014814814815  C 24.0708 6.23511111111111  23.9760805555556 6.20644444444444  23.8673861111111 6.27333333333333  L 20.9341888888889 8.06181481481481  C 20.6919555555556 8.20833333333333  20.3907166666667 8.21151851851852  20.1484833333333 8.06977777777777  C 19.9031444444444 7.92644444444444  19.7494194444444 7.6557037037037  19.7494194444444 7.36425925925925  L 19.7494194444444 5.51366666666667  C 19.7494194444444 4.94988888888889  19.6453833333333 4.40522222222222  19.4388638888889 3.89081481481482  C 19.3083311325727 3.56581606068248  19.4591173431403 3.19379478257162  19.7758166666667 3.05948148148148  C 20.0926904519457 2.9256017314136  20.4554111981038 3.08025425507271  20.5863666666667 3.40507407407408  C 20.8549972222222 4.07396296296296  20.9900888888889 4.78266666666667  20.9900888888889 5.51207407407408  L 20.9900888888889 6.54248148148148  L 23.2307472222222 5.17603703703704  C 23.7027916666667 4.88777777777778  24.2680027777778 4.883  24.7447055555556 5.16011111111111  C 25.2338305555556 5.44518518518519  25.5257527777778 5.96596296296296  25.5257527777778 6.55044444444445  L 25.5257527777778 13.3524074074074  C 25.5257527777778 13.9368888888889  25.2338305555556 14.4576666666667  24.7447055555556 14.7427407407407  C 24.2680027777778 15.0214444444444  23.7027916666667 15.0150740740741  23.2307472222222 14.7284074074074  L 20.9900888888889 13.361962962963  L 20.9900888888889 14.3923703703704  Z " fill-rule="nonzero" fill="#ffffff" stroke="none" transform="matrix(1 0 0 1 36 674 )" />
  </g>
</svg>