<?xml version="1.0" encoding="utf-8"?>
<svg version="1.1" xmlns:xlink="http://www.w3.org/1999/xlink" width="9px" height="10px" xmlns="http://www.w3.org/2000/svg">
  <g transform="matrix(1 0 0 1 -43 -678 )">
    <path d="M 3.9919125 9.05688461538461  C 3.5887875 9.2966923076923  3.14535 9.41742307692308  2.7019125 9.41742307692308  C 2.258475 9.41742307692308  1.8150375 9.29834615384615  1.4119125 9.05853846153846  C 0.60405 8.58057692307692  0.121912500000001 7.72388461538461  0.121912500000001 6.76630769230769  L 0.121912500000001 3.13942307692308  C 0.121912500000001 2.1835  0.604050000000002 1.32680769230769  1.4119125 0.847192307692305  C 2.219775 0.369230769230767  3.18405 0.369230769230767  3.9919125 0.847192307692305  L 7.05405 2.65980769230769  C 7.8619125 3.13776923076923  8.34405 3.99446153846154  8.34405 4.95203846153846  C 8.34405 5.90961538461538  7.8619125 6.76465384615384  7.05405 7.24426923076923  L 3.9919125 9.05688461538461  Z M 3.3469125 1.99330769230769  C 3.15098020177543 1.87660024532508  2.92849028406221 1.81498765272758  2.7019125 1.81469230769231  C 2.4793875 1.81469230769231  2.258475 1.87423076923077  2.0569125 1.99330769230769  C 1.6537875 2.23311538461538  1.4119125 2.66146153846154  1.4119125 3.13942307692308  L 1.4119125 6.76630769230769  C 1.4119125 7.24426923076923  1.6537875 7.67261538461538  2.0569125 7.91242307692308  C 2.45512794294315 8.15223329804965  2.94869705705685 8.15223329804965  3.3469125 7.91242307692308  L 6.40905 6.09980769230769  C 6.812175 5.86  7.05405 5.43165384615385  7.05405 4.95369230769231  C 7.05405 4.47573076923077  6.812175 4.04738461538462  6.40905 3.80757692307692  L 3.3469125 1.99330769230769  Z " fill-rule="nonzero" fill="#ffffff" stroke="none" transform="matrix(1 0 0 1 43 678 )" />
  </g>
</svg>