<?xml version="1.0" encoding="utf-8"?>
<svg version="1.1" xmlns:xlink="http://www.w3.org/1999/xlink" width="21px" height="21px" xmlns="http://www.w3.org/2000/svg">
  <g transform="matrix(1 0 0 1 -104 -674 )">
    <path d="M 21 10.5  C 20.993339569938 4.7037712088916  16.2962287911084 0.00666043006196191  10.5 0  C 4.70101012677667 0  0 4.70101012677667  0 10.5  C 0 16.2989898732233  4.70101012677667 21  10.5 21  C 16.2989898732233 21  21 16.2989898732233  21 10.5  Z M 19.7913669023438 10.5  C 19.7855388814697 15.6290642603545  15.6290642603545 19.7855388814697  10.5 19.7913669023438  C 5.36851975475297 19.7913669023438  1.20863309765625 15.631480245247  1.20863309765625 10.5  C 1.20863309765625 5.36851975475297  5.36851975475297 1.20863309765625  10.5 1.20863309765625  C 15.631480245247 1.20863309765625  19.7913669023438 5.36851975475297  19.7913669023438 10.5  Z " fill-rule="nonzero" fill="#ffffff" stroke="none" transform="matrix(1 0 0 1 104 674 )" />
  </g>
</svg>