<?xml version="1.0" encoding="utf-8"?>
<svg version="1.1" xmlns:xlink="http://www.w3.org/1999/xlink" width="7px" height="9px" xmlns="http://www.w3.org/2000/svg">
  <g transform="matrix(1 0 0 1 -65 -699 )">
    <path d="M 0.12837890625 7.72294921875  C 0.12837890625 7.3283203125  0.47673828125 7.0083984375  0.9064453125 7.0083984375  L 6.0935546875 7.0083984375  C 6.52326171875 7.0083984375  6.87162109375 7.3283203125  6.87162109375 7.72294921875  C 6.87162109375 8.117578125  6.52326171875 8.4375  6.0935546875 8.4375  L 0.9064453125 8.4375  C 0.47673828125 8.4375  0.12837890625 8.117578125  0.12837890625 7.72294921875  Z M 0.846152343750001 3.1482421875  C 0.737050781250001 3.27041015625  0.729394531250001 3.53056640625  1.1552734375 3.5349609375  C 1.2796875 3.53671875  2.4032421875 3.5876953125  3.54689453125 3.59912109375  C 4.690546875 3.610546875  5.66001953125 3.5578125  5.7413671875 3.58330078125  C 6.04474609375 3.67646484375  6.2390234375 3.32138671875  6.11078125 3.174609375  C 6.00837890625 3.05771484375  3.91248046875 0.9158203125  3.7354296875 0.71630859375  C 3.53349609375 0.42626953125  3.12771484375 0.6345703125  3.12771484375 0.6345703125  C 2.99373046875 0.77607421875  0.995449218750001 2.98125  0.846152343750001 3.1482421875  Z " fill-rule="nonzero" fill="#ffffff" stroke="none" transform="matrix(1 0 0 1 65 699 )" />
  </g>
</svg>