<?xml version="1.0" encoding="utf-8"?>
<svg version="1.1" xmlns:xlink="http://www.w3.org/1999/xlink" width="8px" height="11px" xmlns="http://www.w3.org/2000/svg">
  <g transform="matrix(1 0 0 1 -112 -679 )">
    <path d="M 7.33453238378906 5.5  C 7.33453238378906 5.30978695032569  7.24497619981951 5.13067458491919  7.09280575878906 5.01654675683594  L 1.04964029101562 0.484172661132813  C 0.945035408959244 0.405718996817228  0.817806457750079 0.363309345214843  0.687050353515623 0.363309345214843  C 0.353295539527474 0.363309345214843  0.0827338046874981 0.633871080054819  0.0827338046874981 0.967625894042969  L 0.0827338046874981 10.0323740957031  C 0.0827338046874964 10.3661289199452  0.353295539527473 10.6366906547852  0.687050353515621 10.6366906547852  C 0.817806457750079 10.6366906547852  0.945035408959242 10.5942810031828  1.04964029101562 10.5158273388672  L 7.09280575878906 5.98345324316406  C 7.24497619981951 5.86932541508081  7.33453238378906 5.69021304967431  7.33453238378906 5.5  Z M 5.72251798339844 5.5  L 1.29136690234375 8.82374099804688  L 1.29136690234375 2.17625900195313  L 5.72251798339844 5.5  Z " fill-rule="nonzero" fill="#ffffff" stroke="none" transform="matrix(1 0 0 1 112 679 )" />
  </g>
</svg>