<?xml version="1.0" encoding="utf-8"?>
<svg version="1.1" xmlns:xlink="http://www.w3.org/1999/xlink" width="10px" height="13px" xmlns="http://www.w3.org/2000/svg">
  <g transform="matrix(1 0 0 1 -43 -757 )">
    <path d="M 8.75 5  C 8.75 2.92893218813453  7.07106781186548 1.25  5 1.25  C 2.92893218813452 1.25  1.25 2.92893218813453  1.25 5  L 1.25 7.5  C 1.25 9.57106781186548  2.92893218813452 11.25  5 11.25  C 7.07106781186548 11.25  8.75 9.57106781186548  8.75 7.5  L 8.75 5  Z M 0 5  C 0 2.23857625084603  2.23857625084603 0  5 0  C 7.76142374915397 0  10 2.23857625084603  10 5  L 10 7.5  C 10 10.261423749154  7.76142374915397 12.5  5 12.5  C 2.23857625084603 12.5  0 10.261423749154  0 7.5  L 0 5  Z " fill-rule="nonzero" fill="#ffffff" stroke="none" transform="matrix(1 0 0 1 43 757 )" />
  </g>
</svg>