<?xml version="1.0" encoding="utf-8"?>
<svg version="1.1" xmlns:xlink="http://www.w3.org/1999/xlink" width="20px" height="8px" xmlns="http://www.w3.org/2000/svg">
  <g transform="matrix(1 0 0 1 -105 -767 )">
    <path d="M 1.97265625 0.848437500000001  C 1.57890625 1.01484375  0.9953125 1.3453125  0.6203125 1.96875  C 0.18671875 2.690625  0.1328125 3.63515625  0.45859375 4.77421875  C 0.7796875 5.9015625  1.33046875 6.67734375  2.0921875 7.078125  C 2.49765625 7.29140625  2.9125 7.3734375  3.278125 7.3921875  C 2.89140625 6.44296875  2.16484375 4.2421875  1.97265625 0.848437500000001  Z M 19.3796875 1.96640625  C 19.00703125 1.35  18.428125 1.01953125  18.034375 0.853124999999999  C 17.83515625 4.02890625  17.078125 6.3984375  16.7078125 7.38984375  C 17.08046875 7.3734375  17.5046875 7.29140625  17.91484375 7.0734375  C 18.671875 6.6703125  19.2203125 5.896875  19.54140625 4.771875  C 19.8671875 3.63046875  19.81328125 2.68828125  19.3796875 1.96640625  Z " fill-rule="nonzero" fill="#ffffff" stroke="none" transform="matrix(1 0 0 1 105 767 )" />
  </g>
</svg>