<?xml version="1.0" encoding="utf-8"?>
<svg version="1.1" xmlns:xlink="http://www.w3.org/1999/xlink" width="22px" height="18px" xmlns="http://www.w3.org/2000/svg">
  <g transform="matrix(1 0 0 1 -104 -758 )">
    <path d="M 21.26796875 13.978125  C 21.64765625 12.628125  21.565625 11.48203125  21.0171875 10.57265625  C 20.45234375 9.63984375  19.5453125 9.22265625  19.07421875 9.06328125  C 19.0765625 9.01875  19.0765625 8.971875  19.0765625 8.92734375  C 19.0765625 4.47421875  15.453125 0.85078125  11 0.85078125  C 6.546875 0.85078125  2.9234375 4.47421875  2.9234375 8.92734375  C 2.9234375 8.971875  2.9234375 9.01875  2.92578125 9.06328125  C 2.45234375 9.225  1.54765625 9.63984375  0.9828125 10.57265625  C 0.434375 11.4796875  0.35 12.628125  0.73671875 13.98046875  C 1.11640625 15.31171875  1.79140625 16.2421875  2.740625 16.74140625  C 4.11875 17.46796875  5.55546875 17.00390625  5.61640625 16.9828125  C 5.80859375 16.91953125  5.91640625 16.71328125  5.8578125 16.51875  L 5.70546875 16.0078125  C 5.56953125 15.53203125  5.31640625 14.5546875  5.13125 13.36875  C 4.74921875 10.92421875  4.653125 7.59140625  6.3734375 5.5828125  C 7.3859375 4.4015625  8.9421875 3.8015625  11.00234375 3.8015625  C 13.0625 3.8015625  14.61875 4.4015625  15.63125 5.5828125  C 17.34921875 7.59140625  17.25546875 10.9265625  16.8734375 13.36875  C 16.68828125 14.5546875  16.4328125 15.53203125  16.3015625 16.003125  L 16.146875 16.51875  C 16.08828125 16.71328125  16.19609375 16.9171875  16.38828125 16.9828125  C 16.4234375 16.99453125  16.896875 17.146875  17.55078125 17.146875  C 18.0546875 17.146875  18.6640625 17.05546875  19.2640625 16.7390625  C 20.21328125 16.2375  20.88828125 15.309375  21.26796875 13.978125  Z M 4.278125 16.39453125  C 3.9125 16.3734375  3.49765625 16.29375  3.0921875 16.078125  C 2.33046875 15.67734375  1.78203125 14.9015625  1.45859375 13.77421875  C 1.1328125 12.63515625  1.1890625 11.690625  1.6203125 10.96875  C 1.99296875 10.34765625  2.57890625 10.01484375  2.97265625 9.85078125  C 3.16484375 13.24453125  3.89140625 15.4453125  4.278125 16.39453125  Z M 18.3078125 9.41015625  C 18.17890625 12.25546875  17.55546875 14.5078125  17.15703125 15.69140625  C 17.3046875 15.1125  17.4734375 14.35546875  17.609375 13.4859375  C 18.0171875 10.88671875  18.1015625 7.31953125  16.19609375 5.0953125  C 15.0359375 3.73828125  13.2875 3.0515625  10.99765625 3.0515625  C 8.7078125 3.0515625  6.959375 3.73828125  5.79921875 5.0953125  C 3.89609375 7.321875  3.98046875 10.88671875  4.38828125 13.4859375  C 4.55 14.51953125  4.7609375 15.39609375  4.90859375 15.946875  C 4.51953125 14.934375  3.83046875 12.7171875  3.69453125 9.365625  L 3.69453125 9.36328125  L 3.69453125 9.35859375  L 3.68515625 9.23203125  C 3.678125 9.13125  3.67109375 9.03046875  3.67109375 8.92734375  C 3.67109375 4.88671875  6.95703125 1.60078125  10.99765625 1.60078125  C 15.03828125 1.60078125  18.32421875 4.88671875  18.32421875 8.92734375  C 18.32421875 9.03046875  18.3171875 9.13125  18.31015625 9.23203125  L 18.30078125 9.35859375  C 18.30078125 9.37734374999999  18.30546875 9.39375  18.3078125 9.41015625  Z M 20.37734375 10.97109375  C 20.8109375 11.690625  20.8671875 12.63515625  20.54140625 13.77421875  C 20.2203125 14.89921875  19.67421875 15.67265625  18.91484375 16.07578125  C 18.50234375 16.29375  18.078125 16.3734375  17.7078125 16.3921875  C 18.08046875 15.3984375  18.8375 13.02890625  19.034375 9.85546875  C 19.428125 10.021875  20.00703125 10.35234375  20.37734375 10.97109375  Z " fill-rule="nonzero" fill="#ffffff" stroke="none" transform="matrix(1 0 0 1 104 758 )" />
  </g>
</svg>