<?xml version="1.0" encoding="utf-8"?>
<svg version="1.1" xmlns:xlink="http://www.w3.org/1999/xlink" width="10px" height="8px" xmlns="http://www.w3.org/2000/svg">
  <g transform="matrix(1 0 0 1 -110 -767 )">
    <path d="M 1.8125 2.37890625  C 1.8125 2.2734375  1.728125 2.19140625  1.625 2.19140625  C 1.521875 2.19140625  1.4375 2.27578125  1.4375 2.37890625  L 1.4375 5.45390625  C 1.4375 5.55703125  1.521875 5.64140625  1.625 5.64140625  C 1.728125 5.64140625  1.8125 5.55703125  1.8125 5.45390625  L 1.8125 2.37890625  Z M 0.6875 3.50390625  C 0.6875 3.3984375  0.603124999999999 3.31640625  0.5 3.31640625  C 0.396875000000001 3.31640625  0.3125 3.40078125  0.3125 3.50390625  L 0.3125 4.32890625  C 0.3125 4.43203125  0.396875000000001 4.51640625  0.5 4.51640625  C 0.603124999999999 4.51640625  0.6875 4.43203125  0.6875 4.32890625  L 0.6875 3.50390625  Z M 2.9375 0.87890625  C 2.9375 0.7734375  2.853125 0.69140625  2.75 0.69140625  C 2.646875 0.69140625  2.5625 0.775781250000001  2.5625 0.87890625  L 2.5625 6.95390625  C 2.5625 7.05703125  2.646875 7.14140625  2.75 7.14140625  C 2.853125 7.14140625  2.9375 7.05703125  2.9375 6.95390625  L 2.9375 0.87890625  Z M 4.0625 2.00390625  C 4.0625 1.8984375  3.978125 1.81640625  3.875 1.81640625  C 3.771875 1.81640625  3.6875 1.90078125  3.6875 2.00390625  L 3.6875 5.82890625  C 3.6875 5.93203125  3.771875 6.01640625  3.875 6.01640625  C 3.978125 6.01640625  4.0625 5.93203125  4.0625 5.82890625  L 4.0625 2.00390625  Z M 5.1875 1.25390625  C 5.1875 1.1484375  5.103125 1.06640625  5 1.06640625  C 4.896875 1.06640625  4.8125 1.15078125  4.8125 1.25390625  L 4.8125 6.57890625  C 4.8125 6.68203125  4.896875 6.76640625  5 6.76640625  C 5.103125 6.76640625  5.1875 6.68203125  5.1875 6.57890625  L 5.1875 1.25390625  Z M 6.3125 2.00390625  C 6.3125 1.8984375  6.228125 1.81640625  6.125 1.81640625  C 6.021875 1.81640625  5.9375 1.90078125  5.9375 2.00390625  L 5.9375 5.82890625  C 5.9375 5.93203125  6.021875 6.01640625  6.125 6.01640625  C 6.228125 6.01640625  6.3125 5.93203125  6.3125 5.82890625  L 6.3125 2.00390625  Z M 7.4375 0.87890625  C 7.4375 0.7734375  7.353125 0.69140625  7.25 0.69140625  C 7.146875 0.69140625  7.0625 0.775781250000001  7.0625 0.87890625  L 7.0625 6.95390625  C 7.0625 7.05703125  7.146875 7.14140625  7.25 7.14140625  C 7.353125 7.14140625  7.4375 7.05703125  7.4375 6.95390625  L 7.4375 0.87890625  Z M 8.5625 2.37890625  C 8.5625 2.2734375  8.478125 2.19140625  8.375 2.19140625  C 8.271875 2.19140625  8.1875 2.27578125  8.1875 2.37890625  L 8.1875 5.45390625  C 8.1875 5.55703125  8.271875 5.64140625  8.375 5.64140625  C 8.478125 5.64140625  8.5625 5.55703125  8.5625 5.45390625  L 8.5625 2.37890625  Z M 9.6875 3.50390625  C 9.6875 3.3984375  9.603125 3.31640625  9.5 3.31640625  C 9.396875 3.31640625  9.3125 3.40078125  9.3125 3.50390625  L 9.3125 4.32890625  C 9.3125 4.43203125  9.396875 4.51640625  9.5 4.51640625  C 9.603125 4.51640625  9.6875 4.43203125  9.6875 4.32890625  L 9.6875 3.50390625  Z " fill-rule="nonzero" fill="#ffffff" stroke="none" transform="matrix(1 0 0 1 110 767 )" />
  </g>
</svg>