<?xml version="1.0" encoding="utf-8"?>
<svg version="1.1" xmlns:xlink="http://www.w3.org/1999/xlink" width="311px" height="95px" xmlns="http://www.w3.org/2000/svg">
  <g transform="matrix(1 0 0 1 -62 -299 )">
    <path d="M 309.140845070423 62.5070422535211  L 0.338028169014088 93.8450704225352  C 60.5492957746479 63.2112676056338  60.5492957746479 65.3239436619718  60.5492957746479 65.3239436619718  L 109.845070422535 39.2676056338028  L 125.988646349859 35.1482103971753  L 160.901408450704 26.2394366197183  L 212.661971830986 0.18309859154931  L 257.732394366197 42.4366197183099  L 309.140845070423 62.5070422535211  Z " fill-rule="nonzero" fill="#ffffff" stroke="none" transform="matrix(1 0 0 1 62 299 )" />
    <path d="M 0.338028169014088 93.8450704225352  C 60.5492957746479 63.2112676056338  60.5492957746479 65.3239436619718  60.5492957746479 65.3239436619718  L 109.845070422535 39.2676056338028  L 125.988646349859 35.1482103971753  L 160.901408450704 26.2394366197183  L 212.661971830986 0.18309859154931  L 257.732394366197 42.4366197183099  L 309.140845070423 62.5070422535211  " stroke-width="1" stroke="#aaaaaa" fill="none" transform="matrix(1 0 0 1 62 299 )" />
  </g>
</svg>