<?xml version="1.0" encoding="utf-8"?>
<svg version="1.1" xmlns:xlink="http://www.w3.org/1999/xlink" width="15px" height="14px" xmlns="http://www.w3.org/2000/svg">
  <g transform="matrix(1 0 0 1 -360 -244 )">
    <path d="M 13.797421875 2.9580078125  L 11.38201171875 0.5430078125  C 11.1028433472134 0.263914329369331  10.6506985463982 0.262631649083329  10.369951171875 0.54013671875  L 1.68140625 9.12880859375  C 1.57749412715466 9.23147584838484  1.50738045200962 9.36340402896386  1.4804296875 9.50697265625  L 0.8971875 12.6171875  C 0.889007355464372 12.6608098877555  0.884890836999831 12.7050969691989  0.884890836999831 12.7494797077141  C 0.884890836999831 13.145895031079  1.20624895113495 13.4672531452141  1.60266427449983 13.4672531452141  C 1.65712333327981 13.4672531452141  1.71140548359198 13.4610553158606  1.764462890625 13.448779296875  L 4.763115234375 12.755  C 4.89270471388782 12.7250276297684  5.01141712611283 12.6596364026995  5.106005859375 12.566123046875  L 13.79455078125 3.976630859375  C 13.9309984380997 3.84178654989257  14.00779016313 3.65793345152846  14.00779016313 3.46609771226291  C 14.00779016313 3.27566507648563  13.932114504508 3.09303774562284  13.797421875 2.95841796875  Z M 12.2724609375 3.463115234375  L 4.24078125 11.400869140625  L 2.5107421875 11.801796875  L 2.850146484375 9.9921875  L 10.871572265625 2.062841796875  L 12.2724609375 3.463115234375  Z " fill-rule="nonzero" fill="#cccccc" stroke="none" transform="matrix(1 0 0 1 360 244 )" />
  </g>
</svg>