<?xml version="1.0" encoding="utf-8"?>
<svg version="1.1" xmlns:xlink="http://www.w3.org/1999/xlink" width="4px" height="7px" xmlns="http://www.w3.org/2000/svg">
  <g transform="matrix(1 0 0 1 -368 -420 )">
    <path d="M 1.926630859375 4.2295  C 1.927421875 4.213837890625  1.927826171875 4.1980703125  1.927826171875 4.182232421875  C 1.927826171875 3.86102734375  1.76348828125 3.57844140625  1.514599609375 3.413400390625  L 1.385224609375 0.481703125000001  C 1.37838671875 0.347019531250002  1.268330078125 0.104634765625001  1.0035859375 0.104634765625001  C 0.738279296875 0.104634765625001  0.630015624999999 0.347019531250001  0.621947265625 0.481703125000001  L 0.471039062499999 3.431470703125  C 0.236810546874999 3.598603515625  0.0838457031250002 3.87241796875  0.0838457031250002 4.182232421875  C 0.0838457031250002 4.69106640625  0.496984374999998 5.104205078125  1.005818359375 5.104205078125  C 1.044349609375 5.104205078125  1.08230078125 5.101568359375  1.119619140625 5.0969453125  L 2.894482421875 6.669712890625  C 2.995890625 6.75966015625  3.25544921875 6.84157421875  3.469744140625 6.627876953125  C 3.684109375 6.41351171875  3.6004375 6.154533203125  3.51216015625 6.052544921875  L 1.926630859375 4.229447265625  Z " fill-rule="nonzero" fill="#aaaaaa" stroke="none" transform="matrix(1 0 0 1 368 420 )" />
  </g>
</svg>