<?xml version="1.0" encoding="utf-8"?>
<svg version="1.1" xmlns:xlink="http://www.w3.org/1999/xlink" width="16px" height="16px" xmlns="http://www.w3.org/2000/svg">
  <g transform="matrix(1 0 0 1 -361 -416 )">
    <path d="M 15.5237890625 8.182232421875  C 15.5237890625 4.030138671875  12.157912109375 0.664261718749999  8.005818359375 0.66426171875  C 3.8537421875 0.66426171875  0.48784765625 4.030138671875  0.48784765625 8.182232421875  C 0.48784765625 12.334326171875  3.853724609375 15.700203125  8.005818359375 15.700203125  C 12.15789453125 15.700203125  15.5237890625 12.334326171875  15.5237890625 8.182232421875  Z M 14.056841796875 8.182232421875  C 14.056841796875 11.518876953125  11.342462890625 14.233255859375  8.005818359375 14.233255859375  C 4.669173828125 14.233255859375  1.954794921875 11.518876953125  1.954794921875 8.182232421875  C 1.954794921875 4.845587890625  4.669173828125 2.131208984375  8.005818359375 2.131208984375  C 11.342462890625 2.131208984375  14.056841796875 4.845587890625  14.056841796875 8.182232421875  Z " fill-rule="nonzero" fill="#aaaaaa" stroke="none" transform="matrix(1 0 0 1 361 416 )" />
  </g>
</svg>