<?xml version="1.0" encoding="utf-8"?>
<svg version="1.1" xmlns:xlink="http://www.w3.org/1999/xlink" width="29px" height="24px" xmlns="http://www.w3.org/2000/svg">
  <g transform="matrix(1 0 0 1 -105 -453 )">
    <path d="M 20.153125 22.7084263392857  C 18.37578125 23.5119977678571  16.4890625 23.9221540178571  14.53984375 23.9221540178571  C 12.59453125 23.9221540178571  10.70390625 23.5119977678571  8.9265625 22.7084263392857  C 7.2078125 21.9299665178571  5.66484375 20.8166852678571  4.340625 19.3978794642857  C 3.01640625 17.9790736607143  1.97734375 16.3258928571429  1.25078125 14.484375  C 0.496875000000001 12.580078125  0.117968750000001 10.5544084821429  0.117968750000001 8.47014508928572  C 0.117968750000001 7.892578125  0.555468750000001 7.423828125  1.09453125 7.423828125  C 1.63359375 7.423828125  2.07109375 7.892578125  2.07109375 8.47014508928572  C 2.07109375 15.8362165178571  7.66484375 21.8295200892857  14.53984375 21.8295200892857  C 21.41484375 21.8295200892857  27.00859375 15.8362165178571  27.00859375 8.47014508928572  C 27.00859375 6.11383928571429  26.43046875 3.79938616071429  25.3328125 1.77790178571429  C 25.06328125 1.27985491071429  25.21953125 0.63950892857143  25.68828125 0.34654017857143  C 26.153125 0.0577566964285745  26.75078125 0.225167410714289  27.02421875 0.727399553571432  C 28.29375 3.07114955357143  28.96171875 5.74553571428572  28.96171875 8.47014508928572  C 28.96171875 10.5544084821429  28.57890625 12.580078125  27.82890625 14.484375  C 27.10234375 16.3258928571429  26.06328125 17.9790736607143  24.7390625 19.3978794642857  C 23.41484375 20.8166852678571  21.871875 21.9299665178571  20.153125 22.7084263392857  Z " fill-rule="nonzero" fill="#29a1f7" stroke="none" transform="matrix(1 0 0 1 105 453 )" />
  </g>
</svg>