<?xml version="1.0" encoding="utf-8"?>
<svg version="1.1" xmlns:xlink="http://www.w3.org/1999/xlink" width="18px" height="12px" xmlns="http://www.w3.org/2000/svg">
  <g transform="matrix(1 0 0 1 -110 -448 )">
    <path d="M 2.08251404494382 11.3162715517241  C 1.92450842696629 11.7082435344828  1.55714536516854 11.9466594827586  1.16608146067416 11.9466594827586  C 1.04362710674157 11.9466594827586  0.91722261235955 11.9224137931034  0.794768258426968 11.8739224137931  C 0.289150280898876 11.6637931034483  0.0442415730337093 11.0738146551724  0.249648876404494 10.5565732758621  L 4.16028792134831 0.696659482758619  C 4.3656952247191 0.179418103448274  4.94241573033708 -0.0711206896551739  5.44803370786517 0.139008620689654  C 5.95365168539326 0.349137931034481  6.19856039325843 0.939116379310343  5.99315308988764 1.45635775862069  L 2.08251404494382 11.3162715517241  Z M 8.00772471910112 11.3162715517241  C 7.84971910112359 11.7082435344828  7.48235603932584 11.9466594827586  7.09129213483146 11.9466594827586  C 6.96883778089888 11.9466594827586  6.84243328651685 11.9224137931034  6.71997893258427 11.8739224137931  C 6.21436095505618 11.6637931034483  5.96945224719101 11.0738146551724  6.1748595505618 10.5565732758621  L 10.0854985955056 0.696659482758619  C 10.2909058988764 0.179418103448274  10.8676264044944 -0.0711206896551739  11.3732443820225 0.139008620689654  C 11.8788623595506 0.349137931034481  12.1237710674157 0.939116379310343  11.9183637640449 1.45635775862069  L 8.00772471910112 11.3162715517241  Z M 13.9329353932584 11.3162715517241  C 13.7749297752809 11.7082435344828  13.4075667134831 11.9466594827586  13.0165028089888 11.9466594827586  C 12.8940484550562 11.9466594827586  12.7676439606742 11.9224137931034  12.6451896067416 11.8739224137931  C 12.1395716292135 11.6637931034483  11.8946629213483 11.0738146551724  12.1000702247191 10.5565732758621  L 16.0107092696629 0.696659482758619  C 16.2161165730337 0.179418103448274  16.7928370786517 -0.0711206896551739  17.2984550561798 0.139008620689654  C 17.8040730337079 0.349137931034481  18.048981741573 0.939116379310343  17.8435744382022 1.45635775862069  L 13.9329353932584 11.3162715517241  Z " fill-rule="nonzero" fill="#29a1f7" stroke="none" transform="matrix(1 0 0 1 110 448 )" />
  </g>
</svg>