<?xml version="1.0" encoding="utf-8"?>
<svg version="1.1" xmlns:xlink="http://www.w3.org/1999/xlink" width="18px" height="12px" xmlns="http://www.w3.org/2000/svg">
  <g transform="matrix(1 0 0 1 -110 -458 )">
    <path d="M 17.2984550561798 11.8061440677966  C 17.1760007022472 11.853813559322  17.0495962078652 11.8776483050847  16.9271418539326 11.8776483050847  C 16.5360779494382 11.8776483050847  16.1687148876404 11.6432733050847  16.0107092696629 11.2579449152542  L 12.1000702247191 1.56514830508475  C 11.8946629213483 1.05667372881356  12.1395716292135 0.476694915254237  12.6451896067416 0.270127118644065  C 13.1508075842697 0.0635593220338983  13.7275280898876 0.309851694915251  13.9329353932584 0.818326271186441  L 17.8435744382022 10.5111228813559  C 18.048981741573 11.0195974576271  17.8040730337079 11.5995762711864  17.2984550561798 11.8061440677966  Z M 11.3732443820225 11.8061440677966  C 11.2507900280899 11.853813559322  11.1243855337079 11.8776483050847  11.0019311797753 11.8776483050847  C 10.6108672752809 11.8776483050847  10.2435042134831 11.6432733050847  10.0854985955056 11.2579449152542  L 6.17485955056179 1.56514830508475  C 5.96945224719101 1.05667372881356  6.21436095505618 0.476694915254237  6.71997893258427 0.270127118644065  C 7.22559691011236 0.0635593220338983  7.80231741573033 0.309851694915251  8.00772471910112 0.818326271186441  L 11.9183637640449 10.5111228813559  C 12.1237710674157 11.0195974576271  11.8788623595506 11.5995762711864  11.3732443820225 11.8061440677966  Z M 5.44803370786517 11.8061440677966  C 5.32557935393258 11.853813559322  5.19917485955056 11.8776483050847  5.07672050561798 11.8776483050847  C 4.6856566011236 11.8776483050847  4.31829353932584 11.6432733050847  4.16028792134831 11.2579449152542  L 0.249648876404494 1.56514830508475  C 0.0442415730337093 1.05667372881356  0.289150280898876 0.476694915254237  0.794768258426968 0.270127118644065  C 1.30038623595506 0.0635593220338983  1.87710674157303 0.309851694915251  2.08251404494382 0.818326271186441  L 5.99315308988764 10.5111228813559  C 6.19856039325843 11.0195974576271  5.95365168539326 11.5995762711864  5.44803370786517 11.8061440677966  Z " fill-rule="nonzero" fill="#29a1f7" stroke="none" transform="matrix(1 0 0 1 110 458 )" />
  </g>
</svg>