<?xml version="1.0" encoding="utf-8"?>
<svg version="1.1" xmlns:xlink="http://www.w3.org/1999/xlink" width="18px" height="18px" xmlns="http://www.w3.org/2000/svg">
  <g transform="matrix(1 0 0 1 -107 -336 )">
    <path d="M 1.796318359375 14.1612109375  L 14.836689453125 1.121689453125  L 16.776064453125 3.061064453125  L 3.735693359375 16.1005859375  C 3.50200015259961 16.3343137240131  3.18502339086518 16.4656235345215  2.8545068359375 16.4656235345215  C 2.52399028100982 16.4656235345215  2.2070135192754 16.3343137240131  1.9733203125 16.1005859375  L 1.796318359375 15.923583984375  C 1.56259057286193 15.6898907775996  1.43128076235346 15.3729140158652  1.43128076235346 15.0423974609375  C 1.43128076235346 14.7118809060098  1.56259057286193 14.3949041442754  1.796318359375 14.1612109375  Z M 14.836689453125 0.320791015624998  L 1.395869140625 13.761328125  C 1.05595657872033 14.1012381931705  0.86499548022149 14.562256675454  0.86499548022149 15.0429638671875  C 0.86499548022149 15.523671058921  1.05595657872033 15.9846895412045  1.395869140625 16.324599609375  L 1.57287109375 16.5016015625  C 1.91278116192053 16.8415141244047  2.37379964420402 17.0324752229035  2.8545068359375 17.0324752229035  C 3.33521402767098 17.0324752229035  3.79623250995447 16.8415141244047  4.136142578125 16.5016015625  L 17.576962890625 3.06078125  L 14.836689453125 0.320507812499999  Z " fill-rule="nonzero" fill="#29a1f7" stroke="none" transform="matrix(1 0 0 1 107 336 )" />
  </g>
</svg>