<?xml version="1.0" encoding="utf-8"?>
<svg version="1.1" xmlns:xlink="http://www.w3.org/1999/xlink" width="13px" height="13px" xmlns="http://www.w3.org/2000/svg">
  <g transform="matrix(1 0 0 1 -115 -341 )">
    <path d="M 1.425244140625 3.37423828125  L 3.364619140625 1.43486328125  L 11.0810546875 9.151298828125  C 11.3147824740131 9.38499203490039  11.4460922845215 9.70196879663482  11.4460922845215 10.0324853515625  C 11.4460922845215 10.3630019064902  11.3147824740131 10.6799786682246  11.0810546875 10.913671875  L 10.904052734375 11.090673828125  C 10.6703595275996 11.3244016146381  10.3533827658652 11.4557114251465  10.0228662109375 11.4557114251465  C 9.69234965600981 11.4557114251465  9.37537289427539 11.3244016146381  9.1416796875 11.090673828125  L 1.425244140625 3.37423828125  Z M 3.364619140625 0.633964843749999  L 0.624345703125 3.37423828125  L 8.74123046875 11.491123046875  C 9.08114053692053 11.8310356087797  9.54215901920402 12.0219967072785  10.0228662109375 12.0219967072785  C 10.503573402671 12.0219967072785  10.9645918849545 11.8310356087797  11.304501953125 11.491123046875  L 11.48150390625 11.31412109375  C 11.8214164681547 10.9742110255795  12.0123775666535 10.513192543296  12.0123775666535 10.0324853515625  C 12.0123775666535 9.55177815982902  11.8214164681547 9.09075967754553  11.48150390625 8.750849609375  L 3.364619140625 0.633681640625001  Z " fill-rule="nonzero" fill="#29a1f7" stroke="none" transform="matrix(1 0 0 1 115 341 )" />
  </g>
</svg>