<?xml version="1.0" encoding="utf-8"?>
<svg version="1.1" xmlns:xlink="http://www.w3.org/1999/xlink" width="23px" height="23px" xmlns="http://www.w3.org/2000/svg">
  <g transform="matrix(1 0 0 1 -106 -332 )">
    <path d="M 1.965966796875 1.266162109375  L 1.964833984375 1.267578125  L 3.143525390625 1.856923828125  L 3.915537109375 3.4006640625  L 3.9566015625 3.48279296875  L 4.021455078125 3.547646484375  L 11.235771484375 10.761396484375  L 10.75234375 11.24482421875  L 3.53802734375 4.030791015625  L 3.473173828125 3.9659375  L 3.391044921875 3.924873046875  L 1.8473046875 3.152861328125  L 1.257958984375 1.974169921875  L 1.965966796875 1.266162109375  Z M 1.852685546875 0.5776953125  L 1.8541015625 0.576845703125001  L 0.568359375 1.8623046875  L 1.424765625 3.5751171875  L 3.137578125 4.4315234375  L 10.752060546875 12.046005859375  L 12.036669921875 10.761396484375  L 4.421904296875 3.1469140625  L 3.565498046875 1.4341015625  L 1.852685546875 0.5776953125  Z M 21.01280251531 19.032060546875  C 21.01280251531 18.5511451381926  20.8216764148602 18.0899445464984  20.48150390625 17.75  L 15.240263671875 12.5107421875  L 12.499990234375 15.251015625  L 17.74123046875 20.491123046875  C 18.0811405369205 20.8310356087797  18.542159019204 21.0219967072785  19.0228662109375 21.0219967072785  C 19.503573402671 21.0219967072785  19.9645918849545 20.8310356087797  20.304501953125 20.491123046875  L 20.48150390625 20.31412109375  C 20.8216764148602 19.9741765472516  21.01280251531 19.5129759555574  21.01280251531 19.032060546875  Z " fill-rule="nonzero" fill="#29a1f7" stroke="none" transform="matrix(1 0 0 1 106 332 )" />
  </g>
</svg>