<?xml version="1.0" encoding="utf-8"?>
<svg version="1.1" xmlns:xlink="http://www.w3.org/1999/xlink" width="14px" height="12px" xmlns="http://www.w3.org/2000/svg">
  <g transform="matrix(1 0 0 1 -118 -332 )">
    <path d="M 3.82224609375 0.585624999999999  C 5.021723986322 0.582352755096109  6.17265533076937 1.05910306834185  7.0184765625 1.909599609375  L 11.899765625 6.7900390625  C 11.9752710718125 6.86551426444581  12.0176921335693 6.96789876041797  12.0176921335693 7.074658203125  C 12.0176921335693 7.18141764583203  11.9752710718125 7.2838021418042  11.899765625 7.35927734375  L 9.67322265625 9.5858203125  C 9.5977474543042 9.6613257593125  9.49536295833203 9.70374682106933  9.388603515625 9.70374682106933  C 9.28184407291797 9.70374682106933  9.17945957694581 9.6613257593125  9.103984375 9.5858203125  L 1.05138671875 1.5337890625  C 1.84299293580905 0.91657741917529  2.81874537487239 0.582717514629143  3.822529296875 0.585625  Z M 3.822529296875 0.0192187500000003  C 2.47311756387725 0.0173652625020626  1.17865453655221 0.553599119727024  0.225849609375 1.509150390625  L 8.7041015625 9.987119140625  C 9.08245549676983 10.3654692277649  9.69588434698017 10.3654692277649  10.07423828125 9.987119140625  L 12.30078125 7.760576171875  C 12.6791313371399 7.38222223760517  12.6791313371399 6.76879338739483  12.30078125 6.390439453125  L 7.41892578125 1.509150390625  C 6.46612085407279 0.553599119727024  5.17165782674775 0.0173652625020626  3.82224609375 0.0192187500000003  Z " fill-rule="nonzero" fill="#29a1f7" stroke="none" transform="matrix(1 0 0 1 118 332 )" />
  </g>
</svg>