<?xml version="1.0" encoding="utf-8"?>
<svg version="1.1" xmlns:xlink="http://www.w3.org/1999/xlink" width="13px" height="12px" xmlns="http://www.w3.org/2000/svg">
  <g transform="matrix(1 0 0 1 -118 -332 )">
    <path d="M 2.230927734375 0.87392578125  L 10.308447265625 8.9514453125  L 9.67322265625 9.586669921875  C 9.5977474543042 9.6621753686875  9.49536295833203 9.70459643044433  9.388603515625 9.70459643044433  C 9.28184407291797 9.70459643044433  9.17945957694581 9.6621753686875  9.103984375 9.586669921875  L 1.051669921875 1.53435546875  C 1.40951775653335 1.25655184031354  1.80703055989349 1.03402486033455  2.230927734375 0.874208984375  Z M 2.383857421875 0.226240234375  C 1.56810483630791 0.465985916050024  0.825854974327314 0.907284187226259  0.225566406249996 1.50943359375  L 8.7041015625 9.987119140625  C 9.08245549676983 10.3654692277649  9.69588434698017 10.3654692277649  10.07423828125 9.987119140625  L 11.109912109375 8.9514453125  L 2.384423828125 0.225957031249999  Z " fill-rule="nonzero" fill="#29a1f7" stroke="none" transform="matrix(1 0 0 1 118 332 )" />
  </g>
</svg>