<?xml version="1.0" encoding="utf-8"?>
<svg version="1.1" xmlns:xlink="http://www.w3.org/1999/xlink" width="25px" height="28px" xmlns="http://www.w3.org/2000/svg">
  <g transform="matrix(1 0 0 1 -106 -569 )">
    <path d="M 25 8.1460597826087  C 24.9968610491071 7.75815217391304  24.8695591517857 7.37228260869565  24.6372767857143 7.06046195652174  L 24.5047433035714 6.88213315217391  L 14.970703125 0.945991847826088  C 13.8420758928571 0.242527173913044  11.4704241071429 -0.293478260869565  9.95570591517857 0.530910326086958  C 9.32268415178572 0.874320652173914  8.70640345982143 1.29959239130435  8.15987723214286 1.71331521739131  L 8.14034598214286 0.876698369565219  L 1.85023716517857 0.730978260869566  C 0.83565848214286 0.730978260869566  0.0101143973214311 1.55027173913044  0 2.55706521739131  L 0 26.1630434782609  C 0.0101143973214311 27.1701766304348  0.83565848214286 27.9891304347826  1.85023716517857 28  L 23.15673828125 28  C 24.1713169642857 27.9891304347826  24.9968610491071 27.1698369565217  25 26.1630434782609  L 25 8.1460597826087  Z M 2.39118303571428 21  L 2.39118303571428 12.1283967391304  L 6.69991629464286 12.1283967391304  L 16.1216517857143 17.5754076086957  L 16.1711774553571 21  L 2.39118303571428 21  Z M 22.6157924107143 8.45889945652174  L 22.6157924107143 25.6701766304348  L 2.39118303571429 25.6701766304348  L 2.39118303571429 23.7639266304348  L 16.9315011160714 23.7639266304348  C 17.37060546875 23.7639266304348  17.7821568080357 23.5964673913043  18.0908203125 23.2927989130435  C 18.3998325892857 22.9884510869565  18.56689453125 22.5852581521739  18.56201171875 22.156589673913  L 18.4978376116071 17.1368885869565  C 18.4905133928571 16.5872961956522  18.1849888392857 16.0716711956522  17.6998465401786 15.7907608695652  L 7.73960658482143 10.0326086956522  C 7.48787503117548 9.88634850073733  7.20021189056121 9.80911995185585  6.90708705357143 9.80910326086956  L 2.39118303571429 9.80910326086956  L 2.39118303571429 3.06317934782609  L 5.81159319196429 3.14334239130435  L 5.86251395089286 5.27819293478261  L 7.02601841517857 5.27819293478261  C 7.51081194196429 5.27819293478261  7.75774274553571 5.07065217391304  8.35518973214286 4.5679347826087  C 8.99727957589286 4.02819293478261  10.0728934151786 3.12296195652174  11.1167689732143 2.55604619565218  C 11.6099330357143 2.28872282608696  13.0043247767857 2.47452445652174  13.6879185267857 2.90013586956522  L 22.6157924107143 8.45889945652174  Z " fill-rule="nonzero" fill="#29a1f7" stroke="none" transform="matrix(1 0 0 1 106 569 )" />
  </g>
</svg>