<?xml version="1.0" encoding="utf-8"?>
<svg version="1.1" xmlns:xlink="http://www.w3.org/1999/xlink" width="21px" height="17px" xmlns="http://www.w3.org/2000/svg">
  <g transform="matrix(1 0 0 1 -106 -566 )">
    <path d="M 12.65400390625 6.57810422207446  C 11.8498672548221 6.05150468341022  10.8013324812025 6.16276963846439  10.117529296875 6.8472614694149  L 8.9837890625 7.98075964095745  C 8.66728515625 8.29724900265957  8.509716796875 8.73842669547872  8.55107421875 9.19126080452128  C 8.592431640625 9.64338846409574  8.82724609375 10.0460646609043  9.19501953125 10.2957945478723  L 18.679541015625 16.7326088763298  C 18.91845703125 16.8950922539894  19.194287109375 16.9766871675532  19.47080078125 16.9766871675532  C 19.698779296875 16.9766871675532  19.92744140625 16.9208776595745  20.136279296875 16.8085521941489  C 20.5995755922899 16.5590957954591  20.8961161256406 16.0702266863457  20.911474609375 15.530585106383  L 20.985986328125 12.8842253989362  C 21 12.3621592420213  20.743310546875 11.8637591422872  20.3150390625 11.5832987034574  L 12.65400390625 6.57810422207446  Z M 19.033642578125 13.1240649933511  L 18.99365234375 14.5419090757979  L 10.7884765625 8.97332114361702  L 11.47001953125 8.29195063164894  C 11.508642578125 8.25203623670213  11.5677734375 8.24709109042553  11.6142578125 8.27711519281915  L 19.033642578125 13.1240649933511  Z M 0.011962890625 1.90706033909575  C 0.011962890625 2.23767869015958  0.27138671875 2.50612948803192  0.591650390625 2.50612948803191  L 7.183203125 2.50612948803191  C 7.503466796875 2.50612948803191  7.762890625 2.23803191489362  7.762890625 1.90706033909574  L 7.762890625 0.619202958776596  C 7.762890625 0.288231382978723  7.503466796875 0.0201338098404255  7.183203125 0.0201338098404255  L 0.591650390625 0.0201338098404255  C 0.27138671875 0.0201338098404255  0.011962890625 0.288231382978723  0.011962890625 0.619202958776596  L 0.011962890625 1.90706033909575  Z " fill-rule="nonzero" fill="#29a1f7" stroke="none" transform="matrix(1 0 0 1 106 566 )" />
  </g>
</svg>