<?xml version="1.0" encoding="utf-8"?>
<svg version="1.1" xmlns:xlink="http://www.w3.org/1999/xlink" width="11px" height="11px" xmlns="http://www.w3.org/2000/svg">
  <g transform="matrix(1 0 0 1 -333 -335 )">
    <path d="M 10.9835 5.5  C 10.9835 2.464  8.5305 0  5.5 0  C 2.4695 0  0.0165 2.464  0.0165 5.5  C 0.0165 8.536  2.475 11  5.5 11  C 8.525 11  10.9835 8.536  10.9835 5.5  Z M 9.8505 7.337  C 9.6085 7.9035  9.2675 8.4095  8.833 8.844  C 8.3985 9.2785  7.898 9.6195  7.3315 9.856  C 6.7485 10.1035  6.1325 10.2245  5.4945 10.2245  C 4.8565 10.2245  4.2405 10.098  3.6575 9.856  C 3.0965 9.6195  2.5905 9.2785  2.156 8.844  C 1.7215 8.4095  1.3805 7.9035  1.144 7.3425  C 0.896499999999998 6.7595  0.775499999999998 6.138  0.775499999999998 5.5  C 0.775499999999998 4.862  0.901999999999998 4.2405  1.144 3.6575  C 1.3805 3.0965  1.7215 2.5905  2.156 2.156  C 2.5905 1.7215  3.091 1.3805  3.6575 1.144  C 4.246 0.8965  4.862 0.77  5.5 0.77  C 6.138 0.77  6.754 0.8965  7.337 1.1385  C 7.898 1.375  8.404 1.716  8.8385 2.1505  C 9.273 2.585  9.614 3.091  9.8505 3.652  C 10.098 4.235  10.219 4.8565  10.219 5.4945  C 10.219 6.1325  10.0925 6.754  9.8505 7.337  Z " fill-rule="nonzero" fill="#29a1f7" stroke="none" transform="matrix(1 0 0 1 333 335 )" />
  </g>
</svg>