<?xml version="1.0" encoding="utf-8"?>
<svg version="1.1" xmlns:xlink="http://www.w3.org/1999/xlink" width="12px" height="12px" viewBox="585 299  12 12" xmlns="http://www.w3.org/2000/svg">
  <path d="M 591 299  C 594.36 299  597 301.64  597 305  C 597 308.36  594.36 311  591 311  C 587.64 311  585 308.36  585 305  C 585 301.64  587.64 299  591 299  Z " fill-rule="nonzero" fill="#f0f0f0" stroke="none" />
  <path d="M 591 299.5  C 594.08 299.5  596.5 301.92  596.5 305  C 596.5 308.08  594.08 310.5  591 310.5  C 587.92 310.5  585.5 308.08  585.5 305  C 585.5 301.92  587.92 299.5  591 299.5  Z " stroke-width="1" stroke="#aaaaaa" fill="none" />
  <path d="M 591 308  C 589.32 308  588 306.68  588 305  C 588 303.32  589.32 302  591 302  C 592.68 302  594 303.32  594 305  C 594 306.68  592.68 308  591 308  " fill-rule="nonzero" fill="#aaaaaa" stroke="none" />
</svg>