<?xml version="1.0" encoding="utf-8"?>
<svg version="1.1" xmlns:xlink="http://www.w3.org/1999/xlink" width="12px" height="12px" viewBox="585 449  12 12" xmlns="http://www.w3.org/2000/svg">
  <path d="M 591 449  C 594.36 449  597 451.64  597 455  C 597 458.36  594.36 461  591 461  C 587.64 461  585 458.36  585 455  C 585 451.64  587.64 449  591 449  Z " fill-rule="nonzero" fill="#ffffff" stroke="none" />
  <path d="M 591 449.5  C 594.08 449.5  596.5 451.92  596.5 455  C 596.5 458.08  594.08 460.5  591 460.5  C 587.92 460.5  585.5 458.08  585.5 455  C 585.5 451.92  587.92 449.5  591 449.5  Z " stroke-width="1" stroke="#aaaaaa" fill="none" />
  <path d="M 591 458  C 589.32 458  588 456.68  588 455  C 588 453.32  589.32 452  591 452  C 592.68 452  594 453.32  594 455  C 594 456.68  592.68 458  591 458  " fill-rule="nonzero" fill="#aaaaaa" stroke="none" />
</svg>