<?xml version="1.0" encoding="utf-8"?>
<svg version="1.1" xmlns:xlink="http://www.w3.org/1999/xlink" width="12px" height="12px" viewBox="585 525  12 12" xmlns="http://www.w3.org/2000/svg">
  <path d="M 591 525  C 594.36 525  597 527.64  597 531  C 597 534.36  594.36 537  591 537  C 587.64 537  585 534.36  585 531  C 585 527.64  587.64 525  591 525  Z " fill-rule="nonzero" fill="#ffffff" stroke="none" />
  <path d="M 591 525.5  C 594.08 525.5  596.5 527.92  596.5 531  C 596.5 534.08  594.08 536.5  591 536.5  C 587.92 536.5  585.5 534.08  585.5 531  C 585.5 527.92  587.92 525.5  591 525.5  Z " stroke-width="1" stroke="#aaaaaa" fill="none" />
  <path d="M 591 534  C 589.32 534  588 532.68  588 531  C 588 529.32  589.32 528  591 528  C 592.68 528  594 529.32  594 531  C 594 532.68  592.68 534  591 534  " fill-rule="nonzero" fill="#aaaaaa" stroke="none" />
</svg>