<?xml version="1.0" encoding="utf-8"?>
<svg version="1.1" xmlns:xlink="http://www.w3.org/1999/xlink" width="12px" height="12px" viewBox="585 682  12 12" xmlns="http://www.w3.org/2000/svg">
  <path d="M 591 682  C 594.36 682  597 684.64  597 688  C 597 691.36  594.36 694  591 694  C 587.64 694  585 691.36  585 688  C 585 684.64  587.64 682  591 682  Z " fill-rule="nonzero" fill="#f0f0f0" stroke="none" />
  <path d="M 591 682.5  C 594.08 682.5  596.5 684.92  596.5 688  C 596.5 691.08  594.08 693.5  591 693.5  C 587.92 693.5  585.5 691.08  585.5 688  C 585.5 684.92  587.92 682.5  591 682.5  Z " stroke-width="1" stroke="#aaaaaa" fill="none" />
  <path d="M 591 691  C 589.32 691  588 689.68  588 688  C 588 686.32  589.32 685  591 685  C 592.68 685  594 686.32  594 688  C 594 689.68  592.68 691  591 691  " fill-rule="nonzero" fill="#aaaaaa" stroke="none" />
</svg>