<?xml version="1.0" encoding="utf-8"?>
<svg version="1.1" xmlns:xlink="http://www.w3.org/1999/xlink" width="12px" height="12px" viewBox="585 759  12 12" xmlns="http://www.w3.org/2000/svg">
  <path d="M 591 759  C 594.36 759  597 761.64  597 765  C 597 768.36  594.36 771  591 771  C 587.64 771  585 768.36  585 765  C 585 761.64  587.64 759  591 759  Z " fill-rule="nonzero" fill="#ffffff" stroke="none" />
  <path d="M 591 759.5  C 594.08 759.5  596.5 761.92  596.5 765  C 596.5 768.08  594.08 770.5  591 770.5  C 587.92 770.5  585.5 768.08  585.5 765  C 585.5 761.92  587.92 759.5  591 759.5  Z " stroke-width="1" stroke="#aaaaaa" fill="none" />
  <path d="M 591 768  C 589.32 768  588 766.68  588 765  C 588 763.32  589.32 762  591 762  C 592.68 762  594 763.32  594 765  C 594 766.68  592.68 768  591 768  " fill-rule="nonzero" fill="#aaaaaa" stroke="none" />
</svg>